<?xml version="1.0" encoding="UTF-8"?>
<svg xmlns="http://www.w3.org/2000/svg" xmlns:xlink="http://www.w3.org/1999/xlink" viewBox="0 0 1274 2064.98">
  <defs>
    <style>
      .cls-1 {
        fill: #2a3773;
      }

      .cls-2 {
        fill: #475dc3;
      }

      .cls-3 {
        fill: url(#linear-gradient);
      }

      .cls-3, .cls-4 {
        mix-blend-mode: multiply;
        opacity: .51;
      }

      .cls-4 {
        fill: url(#linear-gradient-2);
      }

      .cls-5 {
        isolation: isolate;
      }
    </style>
    <linearGradient id="linear-gradient" x1="143.52" y1="988.4" x2="170.51" y2="160.61" gradientUnits="userSpaceOnUse">
      <stop offset=".22" stop-color="#fff" stop-opacity="0"/>
      <stop offset="1" stop-color="#000"/>
    </linearGradient>
    <linearGradient id="linear-gradient-2" x1="157.37" y1="1466.97" x2="764.71" y2="2146.3" gradientUnits="userSpaceOnUse">
      <stop offset=".29" stop-color="#fff" stop-opacity="0"/>
      <stop offset="1" stop-color="#000"/>
    </linearGradient>
  </defs>
  <g class="cls-5">
    <g id="Layer_1" data-name="Layer 1">
      <g>
        <path class="cls-2" d="M1274,799.94v803.17c0,120.34-67.4,227.29-175.91,279.03-42.3,20.32-87.47,30.71-133.96,30.71-69.79,0-138.5-24.5-193.71-68.95l-49.83-40.15-39.44-31.79,52.82,40.75c117.11,90.7,287.28,7.17,287.28-141.01V799.94c0-142.44-67.28-279.39-179.85-366.51l-226.57-175.07-.48-.36-65.13-50.31c-93.33-72.18-228.72-5.62-228.72,112.21v-41.11c0-107.07,59.75-202.91,155.83-250C515.29,9.68,556.64,0,599.42,0c61.78,0,120.58,20.2,170.05,58.44l226.45,175.19c174.11,134.56,278.08,346.19,278.08,566.32Z"/>
        <path class="cls-1" d="M1021.26,1603.11v68.59c0,148.18-170.17,231.71-287.28,141.01l-52.82-40.75-1.67-1.32-240.68-194.19c-75.17-60.59-118.31-150.81-118.31-247.49V319.9c0-117.83,135.39-184.39,228.72-112.21l65.13,50.31c-4.9-3.58-9.56-5.38-14.82-5.38s-9.8,2.03-11.47,2.87c-10.04,4.78-14.94,12.55-14.94,23.3V1328.97c0,19.84,8.84,38.36,24.26,50.79l331.73,267.56c10.64,8.48,22.23,12.91,34.42,12.91,11.47,0,20.91-3.7,25.57-5.98,11.95-5.74,32.15-20.2,32.15-51.15Z"/>
        <path class="cls-2" d="M699.92,1766.7c-14.34,161.09-196.94,250.47-332.93,163l-95.6-77.91-54.61-44.1C78.99,1696.79,0,1531.64,0,1354.66V521.86c0-138.38,158.94-216.42,268.4-131.81l57.24,44.34-31.19-24.02c-5.02-3.94-10.04-5.74-15.18-5.74s-9.44,1.67-12.19,2.99c-14.46,7.17-14.46,19.24-14.46,23.3v923.74c0,99.9,44.69,193.47,122.61,256.45l233.39,188.09c10.64,8.6,22.35,13.03,34.65,13.03,11.35,0,20.79-3.7,25.45-5.86,8.6-4.3,24.14-14.22,29.88-33.82,.6-1.91,.96-3.82,1.31-5.86Z"/>
        <path class="cls-2" d="M953.62,777v257.76l-252.74,102.77v-360.53c0-32.74-15.53-64.41-41.59-84.49L325.64,434.39l-57.24-44.34C158.94,305.44,0,383.48,0,521.86v-90.82c0-107.19,59.75-203.03,155.83-250.23,38.84-19,80.3-28.8,123.09-28.8,27.49,0,54.73,4.18,81.14,12.31,31.91,9.8,61.9,25.33,88.91,46.01l364.84,282.38c87.59,67.52,139.82,173.87,139.82,284.29Z"/>
        <path class="cls-2" d="M953.62,1350.24v404.99c0,49-11.59,97.39-33.34,140.17-30.71,60.95-80.07,108.87-142.68,138.74-42.66,20.43-87.83,30.83-133.96,30.83-69.67,0-138.5-24.5-193.59-69.07l-49.71-40.03s-17.09-12.79-20.91-16.01l-12.43-10.16c135.99,87.47,318.59-1.91,332.93-163v-.36c.72-3.35,.96-6.93,.96-10.52v-302.93l252.74-102.65Z"/>
        <line class="cls-2" x1="826.71" y1="422.2" x2="614.83" y2="258.36"/>
        <path class="cls-3" d="M320.52,430.42l-26.05-20.08c-5.02-3.94-10.04-5.74-15.18-5.74s-9.44,1.67-12.19,2.99c-14.46,7.17-14.46,19.24-14.46,23.3v440.84H.02v-349.9C.02,383.46,158.96,305.42,268.42,390.03l52.1,40.39Z"/>
        <path class="cls-4" d="M697.43,1785.08c-.6,3.23-1.19,6.33-1.79,9.44,0,.24-.12,.48-.24,.72-.72,3.23-1.43,6.45-2.39,9.56-.6,2.51-1.44,5.02-2.15,7.53-1.31,4.42-2.87,8.84-4.54,13.14-.96,2.39-1.91,4.9-2.99,7.29-1.31,2.99-2.63,5.86-4.06,8.72-1.19,2.75-2.63,5.38-3.94,8.01-1.79,3.35-3.71,6.57-5.74,9.8-1.44,2.39-2.99,4.78-4.54,7.17-15.77,23.78-36.09,43.86-59.27,59.51-2.51,1.67-5.14,3.35-7.77,5.02-1.67,1.08-3.46,2.03-5.14,3.11-2.03,1.19-4.06,2.27-6.09,3.35-1.79,.96-3.58,1.91-5.5,2.87-2.27,1.2-4.42,2.27-6.69,3.23-12.31,5.74-25.09,10.28-38.36,13.62-2.39,.6-4.66,1.19-7.05,1.67-5.62,1.19-11.23,2.27-16.97,3.11-3.23,.48-6.45,.84-9.8,1.08-45.29,4.18-92.61-5.86-135.39-33.34l-95.6-77.91-54.61-44.1c-37.64-30.23-70.86-64.65-99.18-102.17l181.76-181.76c19.6,32.86,45.17,62.5,75.88,87.36l233.39,188.09c10.64,8.6,22.35,13.03,34.66,13.03,11.35,0,20.79-3.7,25.45-5.86,6.93-3.47,18.52-10.76,25.57-23.78l3.11,2.51Z"/>
      </g>
    </g>
  </g>
</svg>