<?xml version="1.0" standalone="no"?>
<!DOCTYPE svg PUBLIC "-//W3C//DTD SVG 20010904//EN"
 "http://www.w3.org/TR/2001/REC-SVG-20010904/DTD/svg10.dtd">
<svg version="1.0" xmlns="http://www.w3.org/2000/svg"
 width="700.000000pt" height="700.000000pt" viewBox="0 0 700.000000 700.000000"
 preserveAspectRatio="xMidYMid meet">
<metadata>
Created by potrace 1.14, written by Peter Selinger 2001-2017
</metadata>
<g transform="translate(0.000000,700.000000) scale(0.100000,-0.100000)"
fill="#000000" stroke="none">
<path d="M3095 6780 c3 -5 8 -10 11 -10 2 0 4 5 4 10 0 6 -5 10 -11 10 -5 0
-7 -4 -4 -10z"/>
<path d="M3193 6744 c-5 -13 -8 -13 -15 -2 -7 10 -8 9 -4 -4 3 -12 0 -18 -10
-18 -8 0 -13 4 -10 8 2 4 -4 8 -14 8 -10 0 -16 -4 -14 -8 3 -4 -2 -8 -11 -8
-9 0 -14 4 -11 8 3 5 0 9 -7 10 -7 0 -22 3 -35 6 -13 3 -20 1 -17 -5 4 -5 1
-9 -4 -9 -6 0 -11 -4 -11 -8 0 -5 13 -8 29 -8 19 0 27 4 24 10 -4 6 1 5 10 -3
9 -7 17 -19 16 -25 0 -6 -3 -5 -6 3 -5 11 -7 11 -14 0 -7 -11 -9 -11 -9 -1 0
10 -5 10 -20 2 -11 -6 -20 -8 -20 -4 0 3 -8 0 -17 -7 -16 -13 -17 -12 -4 4 13
16 2 25 -13 10 -4 -5 -12 -8 -16 -8 -5 0 -16 -9 -25 -20 -9 -11 -14 -15 -11
-8 11 20 -6 43 -31 43 -13 0 -22 4 -19 8 7 12 -41 9 -51 -2 -5 -5 -2 -6 6 -1
9 5 12 3 9 -5 -5 -15 -38 -23 -38 -9 0 5 -5 9 -10 9 -6 0 -5 -8 2 -20 7 -11
16 -20 21 -20 4 0 5 5 2 10 -4 6 -3 10 2 9 16 -4 43 13 36 24 -3 6 -1 7 6 3 6
-4 8 -12 5 -18 -4 -6 1 -8 14 -4 12 4 23 2 28 -5 5 -8 3 -9 -6 -4 -7 4 -16 2
-22 -6 -7 -11 -11 -11 -15 -1 -7 18 -26 15 -19 -4 3 -8 2 -12 -4 -9 -15 9 -52
-14 -43 -28 4 -7 0 -7 -10 2 -18 14 -13 36 6 24 7 -4 6 1 -2 10 -15 20 -23 16
-28 -13 -1 -11 7 -26 19 -34 21 -15 21 -15 0 -13 -11 0 -19 4 -16 8 2 4 -3 9
-11 13 -8 3 -12 12 -9 21 3 8 1 15 -6 15 -6 0 -9 -4 -5 -9 3 -5 0 -13 -6 -16
-5 -4 -8 -14 -4 -22 4 -13 3 -14 -10 -3 -12 10 -13 16 -3 29 10 12 8 12 -8 -2
-11 -9 -23 -14 -27 -11 -7 8 -3 -18 6 -32 9 -16 -4 -26 -19 -13 -9 7 -14 6
-20 -2 -4 -7 -2 -15 4 -17 7 -2 12 -9 12 -15 0 -8 -4 -7 -12 1 -17 17 -28 15
-21 -5 7 -19 5 -18 -17 11 -8 11 -10 17 -3 13 7 -4 18 2 27 14 8 12 19 18 25
15 7 -4 8 -1 5 8 -9 22 -19 20 -32 -6 -6 -13 -11 -18 -11 -11 -1 7 -11 3 -24
-10 -13 -12 -22 -25 -20 -29 2 -4 -1 -9 -7 -13 -7 -4 -7 -12 0 -25 6 -10 6
-21 2 -24 -9 -5 -12 9 -13 52 -1 12 -5 22 -11 22 -5 0 -7 -4 -4 -9 4 -5 1 -11
-6 -13 -6 -2 -12 -12 -14 -22 -2 -14 0 -15 12 -5 10 8 14 8 14 0 0 -6 -5 -11
-11 -11 -5 0 -8 -4 -4 -9 3 -5 0 -13 -6 -17 -8 -4 -9 -3 -5 5 4 6 1 14 -8 17
-9 3 -12 13 -9 22 4 13 2 12 -10 -3 -19 -23 -21 -35 -6 -35 5 0 7 6 3 13 -4 6
-3 9 1 4 11 -9 14 -48 4 -41 -4 2 -9 1 -12 -3 -2 -5 -3 -3 -2 2 2 6 -3 16 -11
22 -11 11 -12 8 -9 -17 2 -16 6 -33 9 -38 2 -4 -4 -8 -14 -8 -14 0 -16 3 -8
13 7 9 7 13 -1 13 -6 0 -14 -7 -17 -15 -4 -8 -11 -15 -16 -15 -7 0 -6 5 1 14
9 11 8 15 -4 20 -11 4 -14 2 -9 -6 4 -6 -1 -17 -10 -23 -15 -11 -15 -13 -1
-19 11 -4 14 -2 9 6 -4 7 -3 8 5 4 8 -6 9 -12 2 -20 -6 -7 -7 -16 -3 -20 4 -4
3 -7 -3 -6 -26 6 -26 -3 1 -32 l29 -33 -31 28 c-17 15 -34 24 -39 20 -5 -5 -4
-1 3 8 6 9 8 20 4 24 -4 5 -2 5 5 1 6 -3 14 -3 17 2 2 4 -4 9 -16 9 -13 1 -18
-3 -14 -12 5 -14 -16 -38 -27 -30 -4 3 -4 2 -1 -3 5 -7 9 -8 37 -11 8 -1 7 -4
-3 -11 -9 -6 -18 -6 -24 0 -17 17 -29 11 -15 -7 13 -17 13 -17 -5 -3 -18 13
-19 13 -14 0 4 -12 -4 -15 -43 -16 -38 0 -44 2 -32 11 14 10 14 13 2 21 -19
11 -68 14 -74 4 -3 -5 0 -12 6 -16 7 -4 10 -3 6 2 -3 5 7 9 23 9 27 1 27 0 11
-22 -9 -12 -20 -23 -25 -23 -5 0 -3 7 5 16 11 14 10 15 -7 12 -10 -1 -25 -10
-32 -18 -11 -13 -12 -13 -10 4 2 10 -3 21 -11 24 -9 3 -11 0 -6 -8 5 -8 4 -11
-3 -6 -5 3 -13 0 -16 -6 -3 -7 -4 -4 -3 6 1 10 -4 21 -11 23 -7 3 -11 1 -10
-4 2 -4 -2 -8 -7 -8 -5 0 -9 3 -8 8 5 13 -14 7 -27 -8 -9 -11 -16 -12 -25 -5
-6 5 -15 7 -19 3 -11 -11 -46 -11 -39 0 4 7 -1 8 -12 3 -18 -6 -18 -6 1 15 10
12 14 19 7 16 -6 -4 -13 -4 -16 0 -2 5 -2 3 -1 -4 2 -6 -4 -14 -12 -17 -9 -4
-12 -11 -8 -18 6 -10 5 -11 -8 -1 -8 7 -18 10 -21 6 -4 -3 -7 0 -7 9 0 8 -10
23 -22 34 l-21 19 17 -27 c14 -21 15 -31 6 -47 -6 -12 -13 -21 -16 -21 -2 0 0
9 6 20 8 14 8 20 0 20 -6 0 -8 6 -4 13 4 6 4 9 -1 5 -4 -4 -14 -3 -22 3 -7 6
-13 10 -14 8 -7 -34 -6 -37 12 -34 10 2 19 0 19 -6 0 -5 -14 -7 -31 -4 -19 4
-28 2 -24 -5 3 -6 0 -7 -9 -4 -9 3 -16 2 -16 -3 0 -5 -7 -10 -15 -10 -8 0 -12
4 -9 9 3 4 0 9 -5 9 -26 3 -30 4 -36 11 -4 3 -21 -2 -38 -11 -18 -10 -44 -17
-59 -16 -15 0 -26 -2 -26 -5 2 -20 -4 -21 -18 -4 -9 10 -6 1 6 -20 18 -33 18
-37 4 -25 -16 12 -17 12 -11 -4 4 -11 3 -16 -4 -12 -6 4 -8 13 -5 21 3 8 0 11
-9 7 -8 -3 -12 -9 -9 -14 3 -5 7 -17 9 -28 4 -19 -17 -23 -32 -6 -4 4 -3 5 4
1 21 -12 22 10 2 40 -10 16 -19 23 -19 17 0 -7 -5 -13 -11 -13 -5 0 -7 5 -3
12 4 7 3 8 -4 4 -6 -4 -9 -13 -6 -20 3 -8 1 -17 -5 -21 -6 -3 -11 2 -12 12 0
17 -1 17 -8 0 -4 -10 -9 -18 -11 -17 -9 3 -40 -12 -40 -19 0 -4 7 -8 15 -8 8
0 11 5 8 11 -3 6 -3 8 2 4 4 -4 14 -3 22 4 11 9 12 7 7 -8 -3 -12 6 -5 26 16
17 19 28 29 24 21 -5 -10 -3 -12 7 -7 8 4 4 -1 -8 -12 -12 -11 -19 -23 -15
-27 4 -5 2 -5 -5 -1 -6 3 -14 2 -17 -2 -3 -5 -17 -8 -31 -7 -23 3 -34 -8 -17
-18 4 -2 1 -2 -6 0 -24 6 -34 -8 -20 -25 11 -15 11 -15 -4 -4 -10 8 -19 9 -22
3 -9 -15 -45 -1 -39 15 3 8 0 14 -7 14 -6 0 -8 -4 -5 -10 3 -5 -1 -10 -10 -10
-13 0 -14 -2 -3 -14 7 -8 17 -13 22 -13 5 1 11 -5 13 -13 4 -13 3 -13 -6 0 -6
8 -11 12 -11 7 0 -4 -11 0 -24 8 -18 12 -26 13 -31 4 -6 -8 -10 -8 -17 2 -8
11 -9 10 -4 -3 3 -10 1 -18 -4 -18 -6 0 -10 6 -10 13 0 8 -3 7 -10 -3 -5 -9
-5 -19 0 -26 10 -11 3 -24 -12 -24 -5 0 -7 4 -4 9 3 5 -2 15 -12 22 -15 13
-16 12 -3 -3 7 -10 10 -18 6 -18 -4 0 -2 -7 5 -15 11 -13 14 -13 25 2 7 10 11
21 9 25 -3 5 -1 8 5 8 5 0 16 7 24 14 13 13 15 12 15 -10 0 -13 -4 -27 -9 -30
-5 -3 -6 2 -3 10 3 9 1 16 -5 16 -10 0 -15 -14 -12 -33 1 -5 -3 -6 -9 -2 -9 6
-14 -8 -11 -28 1 -5 -8 -2 -20 7 -22 15 -49 12 -49 -6 0 -6 8 -5 18 3 14 11
15 11 5 -1 -10 -11 -9 -18 5 -34 17 -21 17 -21 -5 -3 -12 11 -26 16 -32 13
-12 -8 -33 28 -23 39 4 5 1 5 -6 1 -9 -5 -9 -13 -2 -26 7 -13 7 -21 0 -25 -9
-6 -13 0 -12 15 0 3 -8 6 -19 6 -19 0 -19 -1 1 -16 16 -12 18 -18 8 -28 -9 -9
-9 -15 0 -24 11 -11 15 -5 14 22 0 3 7 11 15 19 14 12 15 12 11 0 -3 -8 2 -23
11 -34 9 -12 10 -15 1 -7 -16 14 -34 16 -26 3 3 -5 -1 -12 -10 -15 -8 -3 -12
-11 -9 -16 4 -6 1 -9 -7 -8 -8 2 -12 -5 -10 -17 2 -16 1 -17 -7 -5 -6 8 -15
16 -21 16 -5 1 -11 2 -12 4 -2 1 -11 3 -22 5 -14 3 -16 1 -7 -8 13 -13 15 -31
2 -22 -5 3 -12 1 -15 -4 -4 -5 -2 -12 4 -16 6 -4 8 -11 5 -16 -4 -5 -1 -9 5
-9 7 0 9 7 6 16 -4 10 -2 13 6 8 6 -4 8 -3 5 2 -10 17 7 34 23 24 13 -8 12
-10 -3 -10 -10 0 -16 -4 -13 -8 2 -4 1 -14 -4 -22 -5 -9 -5 -20 2 -28 7 -7 -2
-6 -20 5 -17 10 -28 22 -25 27 4 5 1 6 -6 1 -9 -5 -10 -10 -2 -18 21 -21 11
-30 -11 -11 l-21 19 19 -30 18 -30 -24 20 c-13 11 -20 15 -17 8 4 -6 2 -13 -5
-16 -7 -2 -6 -3 2 -2 9 1 21 -4 28 -11 16 -17 16 -29 -1 -17 -18 15 -49 13
-36 -3 7 -8 7 -14 -1 -19 -5 -3 -10 0 -10 7 0 10 -3 9 -10 -2 -5 -9 -5 -19 2
-27 8 -10 6 -17 -8 -28 -10 -8 -24 -13 -30 -11 -6 3 -11 -3 -10 -12 0 -9 -4
-16 -11 -15 -9 2 -11 -16 -3 -37 1 -3 2 -9 1 -13 -1 -5 3 -6 9 -2 5 3 10 -1
10 -9 0 -8 8 -20 18 -26 16 -10 16 -10 -2 -8 -10 2 -21 -3 -24 -11 -2 -8 0
-11 5 -8 5 3 10 0 10 -7 0 -7 -9 -19 -20 -25 -15 -10 -17 -10 -12 0 6 8 4 10
-5 4 -9 -5 -11 -4 -6 4 4 6 12 9 17 6 5 -4 9 -1 9 4 0 16 -27 13 -33 -3 -3 -7
0 -19 6 -25 9 -9 6 -17 -13 -32 -18 -14 -20 -17 -6 -12 14 5 17 3 11 -7 -5 -9
-4 -11 4 -6 6 4 8 12 5 18 -5 7 -2 8 7 3 8 -5 11 -5 7 0 -9 10 10 35 26 35 6
0 3 -5 -7 -11 -15 -9 -16 -13 -6 -25 10 -12 10 -15 -1 -12 -7 2 -15 -3 -18
-11 -3 -8 0 -11 7 -7 6 4 11 2 11 -4 0 -6 -11 -8 -24 -6 -18 3 -23 1 -20 -9 3
-7 13 -12 23 -10 12 2 17 -4 17 -20 0 -13 -4 -21 -8 -19 -4 3 -8 0 -8 -5 0 -6
6 -11 13 -11 8 0 7 -4 -3 -10 -8 -5 -19 -10 -25 -10 -5 0 -4 4 4 9 9 6 10 11
2 15 -6 4 -11 2 -11 -5 0 -7 -3 -9 -7 -5 -4 4 3 15 16 25 16 12 20 21 12 25
-6 4 -11 1 -11 -6 0 -7 -9 -2 -19 11 -14 18 -20 21 -26 11 -5 -9 -4 -11 3 -6
12 7 13 3 16 -41 0 -12 4 -24 8 -28 4 -4 1 -20 -7 -34 -13 -25 -12 -27 5 -27
11 1 19 -3 19 -9 0 -5 8 -12 18 -16 17 -7 17 -8 1 -8 -21 -1 -24 -17 -5 -24 9
-4 9 -6 -1 -6 -7 -1 -10 -6 -6 -13 4 -7 3 -8 -4 -4 -19 11 -14 -5 6 -20 16
-13 16 -14 -2 -7 -14 5 -17 3 -11 -7 6 -10 4 -10 -10 -3 -19 11 -55 6 -55 -8
0 -5 7 -6 16 -2 14 5 15 3 4 -18 l-11 -24 20 25 c11 14 21 19 21 12 0 -6 5
-11 12 -10 14 3 17 -31 5 -49 -5 -7 -13 -10 -18 -7 -5 3 -9 0 -9 -6 0 -6 -4
-9 -9 -6 -5 3 -14 0 -20 -8 -9 -10 -7 -17 5 -27 15 -12 14 -14 -3 -20 -16 -7
-16 -8 0 -8 9 -1 17 -6 17 -12 0 -6 -7 -8 -16 -5 -9 3 -12 2 -9 -4 4 -6 12
-10 18 -8 23 4 57 -13 50 -25 -8 -12 -9 -17 -12 -38 0 -5 -7 -7 -13 -3 -10 6
-10 4 -2 -7 14 -19 12 -38 -6 -49 -13 -9 -13 -10 0 -11 8 -1 18 -1 23 0 4 0 7
-3 7 -9 0 -5 -8 -10 -17 -10 -15 0 -16 -2 -3 -10 19 -12 33 -13 26 -1 -3 4 0
16 7 25 12 16 13 16 14 -3 1 -11 -2 -23 -8 -26 -5 -4 -9 -11 -9 -17 0 -7 5 -6
14 1 10 8 16 9 21 1 4 -6 1 -9 -6 -8 -6 2 -13 -6 -14 -17 -1 -11 -6 -29 -10
-40 -7 -20 -6 -20 9 -1 9 11 16 15 16 8 0 -6 -8 -17 -17 -24 -10 -7 -25 -22
-33 -33 -13 -17 -11 -17 14 3 39 30 54 28 19 -2 -24 -20 -25 -26 -14 -40 9
-11 10 -16 2 -16 -6 0 -11 -5 -11 -11 0 -8 5 -7 15 1 11 9 13 16 5 24 -14 14
-13 27 3 24 6 -2 11 3 9 10 -1 6 3 12 9 12 6 0 9 -6 6 -14 -3 -7 0 -19 6 -25
14 -14 18 -41 5 -41 -6 0 -8 6 -5 14 3 8 0 20 -8 26 -11 9 -14 7 -13 -12 1
-13 6 -30 12 -38 9 -13 9 -13 -6 -2 -12 10 -18 10 -24 1 -5 -9 -10 -8 -19 5
-12 15 -13 15 -17 -2 -4 -15 1 -18 26 -17 48 0 41 -29 -7 -33 -24 -1 -36 1
-32 8 3 5 1 10 -4 10 -6 0 -11 -3 -11 -7 0 -17 16 -29 38 -27 21 1 21 0 7 -16
-8 -9 -12 -20 -8 -23 3 -4 1 -7 -5 -7 -15 0 -15 13 0 28 8 8 8 12 1 12 -11 0
-29 -18 -35 -35 -1 -5 -10 -9 -18 -7 -13 2 -13 1 0 -10 14 -12 14 -15 -2 -30
-18 -18 -26 -11 -9 8 5 5 1 17 -11 29 l-21 20 12 -22 c14 -27 -3 -32 -18 -5
-6 9 -11 12 -11 7 0 -6 6 -17 13 -24 10 -11 9 -13 -5 -8 -10 3 -20 2 -23 -4
-4 -5 -11 -7 -16 -4 -5 4 -9 1 -9 -4 0 -14 17 -14 25 -1 5 8 11 8 20 0 10 -8
15 -7 19 2 3 7 3 2 0 -11 -4 -13 -2 -21 3 -18 12 7 10 -30 -2 -40 -4 -5 -6 -3
-2 2 3 6 2 17 -3 25 -7 11 -11 11 -24 1 -17 -14 -40 -6 -30 11 4 7 2 8 -4 4
-6 -4 -8 -14 -5 -23 4 -11 3 -14 -5 -9 -7 4 -12 2 -12 -3 0 -29 -19 -50 -40
-44 -13 4 -13 4 0 -6 13 -10 13 -13 -2 -21 -10 -6 -14 -18 -11 -30 3 -11 9
-17 15 -14 5 3 4 12 -3 20 -17 21 -1 17 24 -7 19 -18 19 -19 3 -13 -15 6 -17
4 -11 -6 5 -8 4 -11 -3 -6 -6 3 -14 2 -17 -4 -5 -8 -16 -6 -33 6 -15 9 -22 11
-15 4 10 -10 8 -20 -9 -44 -12 -17 -18 -28 -13 -24 4 4 15 2 23 -5 9 -6 13 -7
10 -2 -4 6 2 11 13 11 12 0 15 -4 9 -10 -6 -6 -22 -10 -38 -11 -27 0 -35 -20
-8 -20 24 0 28 -11 9 -26 -11 -9 -14 -10 -9 -1 4 6 3 12 -3 12 -5 0 -13 -9
-16 -20 -4 -11 -11 -18 -16 -15 -5 4 -5 15 2 28 10 22 10 22 -6 2 -9 -11 -18
-18 -21 -17 -3 2 -9 0 -12 -4 -4 -4 -2 -4 5 0 14 8 28 -10 14 -18 -5 -4 -7
-21 -5 -39 3 -17 1 -27 -3 -21 -6 9 -11 9 -19 0 -9 -10 -7 -15 7 -24 13 -9 20
-9 25 0 5 7 2 8 -7 3 -12 -7 -12 -5 -1 6 11 12 14 12 22 -1 5 -8 10 -19 10
-25 0 -5 -5 -3 -10 5 -9 14 -15 7 -11 -14 1 -5 -11 -1 -26 9 l-28 18 24 -26
c20 -22 22 -29 11 -42 -10 -11 -10 -18 -1 -29 8 -10 9 -16 1 -21 -6 -3 -8 -11
-5 -16 3 -5 -1 -6 -10 -3 -14 6 -14 8 2 20 10 7 14 13 8 13 -5 0 -18 -6 -27
-13 -16 -12 -16 -14 8 -26 22 -12 23 -15 7 -24 -16 -9 -16 -10 2 -17 18 -7 18
-8 2 -8 -10 -1 -15 -6 -12 -11 4 -6 11 -8 16 -5 5 4 9 1 9 -4 0 -14 -17 -14
-25 -1 -4 6 -11 8 -16 4 -6 -3 -4 -11 5 -17 12 -9 13 -16 5 -27 -10 -13 -10
-13 -6 1 3 9 -1 16 -8 16 -10 0 -11 -5 -4 -18 13 -25 11 -29 -8 -23 -15 5 -16
4 -3 -5 10 -7 11 -14 5 -18 -6 -5 -12 -18 -12 -31 -2 -18 2 -22 16 -17 10 3
24 -1 31 -10 11 -13 10 -14 -5 -9 -12 5 -16 4 -11 -4 3 -6 2 -13 -3 -16 -5 -4
-13 -1 -17 5 -5 8 -3 9 6 4 9 -5 11 -4 6 3 -11 19 -22 14 -35 -15 -10 -24 -9
-26 2 -11 10 12 17 14 24 7 8 -8 18 -7 34 1 23 11 23 11 -1 -9 -14 -11 -26
-16 -28 -11 -4 11 -42 -11 -42 -24 0 -4 7 -3 15 4 12 10 18 10 30 0 12 -10 15
-10 15 1 1 10 4 8 11 -4 13 -22 3 -38 -19 -30 -15 6 -15 5 -3 -10 7 -9 10 -17
5 -18 -5 0 -1 -4 8 -7 17 -7 17 -8 -1 -19 -16 -10 -18 -8 -16 12 3 19 -1 22
-19 17 -17 -5 -18 -7 -3 -10 9 -2 17 -8 17 -13 0 -6 -6 -7 -12 -3 -7 4 -10 4
-6 -1 4 -4 0 -14 -10 -22 -14 -11 -14 -12 -1 -7 21 7 20 -32 -1 -47 -13 -9
-12 -10 2 -5 13 4 22 -5 36 -35 10 -21 21 -37 25 -34 4 3 5 2 2 -2 -3 -3 3
-12 13 -20 15 -12 15 -12 0 -7 -13 4 -15 1 -11 -17 4 -15 3 -20 -6 -15 -6 4
-9 12 -6 17 4 5 2 9 -2 9 -5 0 -14 -10 -22 -22 -13 -20 -12 -22 1 -11 15 13
28 8 28 -9 0 -5 -5 -6 -12 -2 -7 4 -8 3 -4 -5 4 -6 12 -9 17 -6 5 4 9 -1 9 -9
0 -8 -8 -19 -17 -25 -16 -8 -14 -10 7 -9 14 1 30 5 35 9 6 5 11 -4 11 -21 1
-16 -4 -31 -11 -33 -6 -3 -12 1 -12 9 0 7 5 10 10 7 6 -3 7 -1 4 5 -8 12 -32
10 -44 -3 -4 -4 -3 -5 4 -1 6 3 14 2 18 -4 3 -5 2 -10 -3 -10 -5 0 -12 -10
-15 -22 -5 -19 -4 -21 6 -8 7 8 18 16 25 17 17 4 15 -16 -3 -23 -24 -10 -17
-20 16 -22 18 -1 28 2 24 7 -3 6 -13 7 -22 4 -15 -6 -16 -5 -3 9 14 15 16 14
31 -1 9 -9 13 -18 9 -21 -4 -3 -6 -15 -5 -27 1 -18 -1 -20 -12 -11 -11 9 -11
13 -1 19 8 5 5 8 -9 6 -18 -1 -20 -4 -10 -17 24 -30 49 -40 46 -17 -4 34 22
59 37 35 4 -6 3 -8 -3 -5 -6 4 -16 0 -22 -7 -9 -10 -9 -16 -1 -21 6 -4 9 -13
6 -21 -4 -9 3 -18 17 -24 22 -9 22 -9 1 -9 -12 -1 -24 6 -28 14 -7 20 -22 19
-30 -2 -4 -10 -4 -14 0 -11 11 12 45 -12 37 -25 -4 -7 -8 -19 -8 -27 0 -8 -6
-14 -13 -12 -8 1 -11 -2 -7 -7 8 -14 35 -2 36 15 3 28 4 32 12 41 5 4 7 1 5
-7 -2 -8 3 -14 10 -12 8 1 11 -2 8 -7 -4 -5 2 -14 11 -20 11 -6 13 -11 5 -11
-7 0 -10 -5 -7 -10 4 -6 11 -7 17 -4 7 4 8 2 4 -4 -4 -6 2 -17 14 -24 24 -15
25 -24 6 -44 -17 -16 -30 -19 -21 -4 3 6 -1 7 -10 4 -13 -5 -10 -10 14 -25 17
-10 31 -24 31 -31 0 -20 37 -40 46 -26 5 7 3 8 -6 3 -9 -5 -11 -4 -6 4 4 6 4
10 -1 9 -4 -2 -10 2 -12 7 -2 6 -12 16 -23 23 -10 7 -16 18 -12 23 3 5 14 -2
25 -15 11 -14 26 -23 33 -20 7 3 19 -3 26 -13 12 -15 12 -16 0 -5 -8 6 -19 12
-24 12 -6 -1 -1 -9 12 -20 12 -10 18 -21 13 -24 -5 -4 -12 0 -15 6 -3 7 -3 2
0 -12 5 -20 4 -23 -7 -13 -7 7 -18 13 -23 13 -13 -1 24 -23 42 -26 6 -1 10 1
8 4 -2 4 3 16 11 27 8 11 13 14 11 6 -2 -8 6 -25 17 -37 21 -22 31 -59 13 -48
-5 3 -5 10 -2 16 4 7 2 8 -5 4 -6 -4 -9 -12 -6 -17 4 -5 1 -9 -5 -9 -6 0 -8
-5 -4 -11 4 -8 9 -7 15 2 5 8 9 10 9 4 0 -5 9 1 19 14 l19 25 -5 -27 c-3 -16
-12 -27 -22 -28 -9 0 -11 -3 -4 -5 7 -3 22 0 34 6 12 7 19 8 15 2 -3 -5 1 -13
10 -16 10 -4 14 -12 10 -23 -4 -9 -1 -20 6 -25 22 -13 33 -9 14 5 -16 12 -16
14 -2 14 9 0 16 -4 16 -9 0 -5 5 -6 12 -2 7 5 8 3 3 -6 -12 -20 -15 -60 -3
-60 5 0 6 10 2 22 -6 21 -6 22 17 6 13 -9 23 -24 22 -34 -1 -11 0 -13 3 -6 3
6 9 10 14 7 4 -3 13 2 20 10 14 17 30 20 30 4 0 -5 -4 -8 -8 -5 -4 2 -14 -5
-21 -17 -8 -12 -10 -19 -6 -15 11 10 47 -11 40 -23 -4 -5 -3 -9 2 -8 19 5 41
-14 37 -29 -5 -15 -4 -15 5 -2 5 9 21 15 35 15 27 -2 76 -40 76 -59 0 -6 -9 0
-19 13 -10 14 -29 26 -42 27 -13 2 -18 0 -11 -2 6 -3 10 -10 7 -15 -4 -5 0 -6
8 -3 8 3 18 0 23 -7 4 -7 3 -10 -3 -6 -6 4 -9 -7 -6 -29 2 -21 0 -33 -6 -30
-5 3 -8 -5 -6 -19 1 -14 -2 -25 -8 -25 -6 0 -7 -3 -4 -6 10 -11 38 18 33 32
-3 7 -1 16 5 20 7 4 6 10 -1 19 -7 8 -7 15 -1 19 11 7 18 -2 16 -24 0 -8 4
-18 10 -22 6 -5 6 -8 -2 -8 -7 0 -13 -5 -13 -11 0 -5 5 -7 12 -3 7 4 8 3 4 -5
-4 -6 -11 -9 -15 -7 -4 3 -13 -4 -19 -15 -12 -19 -11 -19 10 -8 21 11 22 11 9
-5 -12 -14 -12 -19 -1 -29 10 -10 11 -9 5 2 -5 9 -4 12 3 7 17 -10 15 -26 -3
-26 -9 0 -18 7 -21 15 -8 19 -21 19 -21 0 0 -8 4 -12 9 -9 4 3 8 1 8 -5 0 -5
-6 -12 -12 -15 -7 -2 -2 -4 12 -3 14 1 25 -3 25 -11 0 -7 7 -17 15 -22 13 -9
13 -10 0 -11 -8 -1 -18 -1 -21 -1 -3 1 -6 -4 -6 -11 0 -7 -4 -20 -8 -29 -4
-11 -3 -18 5 -18 6 0 8 5 5 10 -4 7 3 9 19 6 15 -3 26 0 26 6 0 6 3 8 6 5 4
-4 1 -14 -7 -24 -12 -15 -12 -16 4 -10 10 4 16 3 12 -2 -3 -5 1 -12 7 -15 7
-3 2 -3 -12 1 -23 5 -24 5 -10 -12 8 -10 14 -20 13 -22 -7 -9 -2 -33 6 -29 5
4 8 -2 6 -11 -1 -10 5 -27 14 -37 9 -11 10 -16 4 -12 -12 6 -15 0 -12 -20 0
-4 -5 -10 -12 -14 -7 -5 -1 -7 15 -7 24 2 25 3 9 14 -15 11 -15 13 -1 13 9 0
19 -7 22 -16 5 -14 9 -14 24 -3 15 11 15 11 4 -1 -7 -8 -22 -16 -32 -16 -36
-3 -40 -4 -40 -15 0 -8 5 -7 15 1 14 12 15 10 11 -13 -3 -17 0 -26 7 -24 7 1
11 -3 10 -9 -1 -6 9 -10 23 -8 19 2 24 -1 20 -13 -5 -11 -2 -13 9 -9 9 3 13 2
10 -4 -3 -6 -1 -10 4 -10 6 0 11 -5 11 -10 0 -7 -6 -7 -19 0 -26 13 -41 12
-18 -1 10 -6 30 -12 43 -14 18 -2 22 1 14 10 -8 9 -6 14 5 19 10 3 13 2 10 -5
-8 -13 23 -61 35 -54 5 3 11 1 15 -5 4 -6 10 -8 15 -5 4 3 6 -5 3 -16 l-6 -21
-11 21 c-10 17 -14 19 -25 9 -11 -11 -12 -10 -6 0 6 11 3 12 -14 3 -11 -7 -21
-14 -21 -17 0 -3 5 -2 11 2 6 3 15 0 20 -7 6 -10 9 -11 9 -1 0 6 5 12 12 12 6
0 9 -3 6 -6 -6 -5 43 -59 52 -57 3 1 13 -5 22 -14 16 -14 17 -13 12 12 -4 23
-2 26 12 21 9 -3 23 -1 30 5 12 9 13 9 9 -4 -4 -8 -2 -18 4 -21 6 -4 8 -13 4
-21 -3 -8 0 -15 6 -15 6 0 11 7 11 15 0 8 4 15 10 15 5 0 7 -8 4 -18 -5 -14
-3 -14 10 2 9 11 16 15 16 9 0 -12 -18 -28 -32 -28 -3 0 -9 -3 -12 -7 -3 -5
-3 -6 1 -3 3 3 13 -1 21 -8 10 -8 13 -8 9 -1 -8 13 20 29 43 25 8 -2 19 -10
23 -18 8 -12 11 -12 23 4 12 15 13 15 8 1 -4 -11 3 -22 20 -33 22 -15 29 -15
43 -4 14 12 16 12 8 0 -6 -11 -4 -13 7 -9 8 4 21 2 29 -3 9 -5 23 -2 39 8 14
9 22 12 18 8 -4 -5 -3 -14 3 -21 8 -9 4 -12 -15 -10 -17 2 -23 -1 -19 -10 3
-8 9 -12 13 -9 5 3 11 -1 13 -7 4 -10 6 -9 6 1 1 11 4 11 16 1 10 -9 15 -9 15
-1 0 6 -4 11 -8 11 -4 0 -8 10 -9 23 -2 22 -2 22 17 -3 10 -13 16 -28 14 -32
-2 -3 0 -9 5 -13 6 -3 8 3 6 15 -3 16 1 20 20 20 19 0 23 -4 19 -17 -5 -14 -4
-15 4 -4 6 8 8 21 5 30 -3 10 -1 12 4 6 4 -5 13 -11 18 -11 82 -13 106 -14
100 -4 -3 6 -12 7 -18 4 -7 -4 -9 -4 -5 1 4 4 2 15 -4 24 -10 13 -10 14 1 4 7
-6 19 -10 25 -9 6 2 8 1 3 -1 -4 -3 -5 -9 -1 -14 3 -5 11 -6 17 -2 16 11 67
11 61 1 -3 -4 -1 -8 3 -8 16 0 34 -38 21 -46 -7 -5 -8 -3 -3 6 6 9 4 11 -5 5
-9 -5 -11 -4 -6 3 5 8 1 10 -11 6 -14 -4 -15 -3 -4 4 9 7 10 12 2 16 -6 4 -11
2 -11 -3 0 -6 -4 -11 -10 -11 -5 0 -9 5 -7 11 1 6 -4 14 -10 16 -18 7 -40 -44
-25 -59 8 -8 9 -6 6 9 -9 33 8 33 54 2 30 -21 48 -27 59 -21 11 6 12 11 4 16
-6 4 -11 13 -11 19 0 7 5 4 11 -6 6 -9 14 -15 20 -12 5 4 9 1 9 -4 0 -6 -5
-11 -11 -11 -5 0 -7 -5 -3 -12 4 -6 3 -8 -4 -4 -6 3 -14 1 -18 -5 -4 -8 -3 -9
4 -5 7 4 12 2 12 -4 0 -6 5 -8 12 -4 8 5 9 2 5 -9 -3 -9 -3 -16 1 -16 4 1 12
0 17 -1 28 -8 51 -3 58 10 5 10 6 8 3 -7 -5 -26 15 -46 36 -38 8 3 21 -1 28
-10 10 -12 16 -13 26 -4 19 15 18 1 -1 -17 -12 -12 -15 -12 -15 -2 0 8 -5 6
-11 -5 -16 -27 -3 -33 22 -11 26 23 22 23 50 -1 20 -18 22 -18 16 -2 -4 10 -3
16 2 13 11 -7 11 -56 0 -56 -5 0 -8 6 -6 12 1 7 -4 12 -11 10 -8 -1 -11 2 -7
7 3 6 -4 8 -16 6 -26 -5 -35 -13 -25 -22 4 -4 11 -1 15 6 7 10 12 8 24 -9 11
-15 21 -20 35 -16 17 6 19 3 15 -13 -3 -12 -9 -19 -13 -16 -5 3 -11 1 -14 -4
-4 -5 2 -8 11 -7 9 2 19 9 21 17 6 18 30 32 61 35 30 4 15 -14 -16 -19 -13 -2
-26 -7 -30 -11 -5 -4 -3 -7 2 -6 22 5 29 -1 15 -11 -12 -9 -12 -10 4 -5 14 5
17 3 12 -11 -6 -14 -5 -15 5 -6 10 10 9 15 -1 28 -14 17 0 21 17 4 6 -6 9 -19
5 -28 -5 -14 -4 -14 11 1 18 17 22 30 10 25 -5 -1 -9 1 -10 6 -6 17 -2 19 13
6 15 -12 16 -11 10 11 l-7 25 13 -23 c11 -18 16 -20 28 -10 12 11 12 10 1 -4
-7 -10 -17 -16 -21 -13 -5 3 -7 -3 -6 -12 3 -21 22 -28 31 -13 5 8 12 6 25 -5
13 -12 20 -13 25 -5 10 16 -12 29 -38 24 -11 -2 -17 0 -13 3 19 19 48 11 64
-17 16 -28 20 -31 39 -29 4 0 10 -8 14 -18 7 -17 8 -17 8 0 1 10 5 16 11 12 5
-3 6 -13 3 -23 -7 -18 -5 -17 17 12 12 16 12 18 1 11 -9 -5 -12 -4 -7 3 4 7
-1 10 -14 7 -14 -3 -18 0 -13 8 5 8 2 8 -9 -1 -12 -10 -17 -10 -27 1 -6 8 -9
16 -6 19 3 3 -1 11 -10 18 -8 7 -15 16 -15 21 0 5 9 0 20 -11 12 -12 18 -25
15 -30 -4 -6 1 -10 9 -10 8 0 18 4 21 10 10 16 22 12 40 -16 14 -21 14 -28 3
-42 -9 -11 -10 -14 0 -8 6 4 12 3 12 -2 0 -6 8 -13 17 -16 15 -6 15 -4 -2 14
-10 11 -13 20 -7 20 6 0 14 -5 17 -11 8 -13 30 -6 31 9 1 7 2 18 3 25 1 7 6 5
12 -6 8 -14 14 -15 24 -7 7 6 17 10 21 9 23 -4 35 2 28 14 -4 6 -3 8 1 4 5 -4
10 -20 11 -35 1 -15 0 -19 -3 -9 -2 9 -8 17 -13 17 -4 0 -3 -14 3 -30 10 -26
13 -28 19 -13 5 13 7 14 7 3 1 -12 3 -13 10 -1 9 14 31 7 31 -10 0 -6 -4 -8
-9 -4 -5 3 -12 1 -15 -4 -4 -5 2 -8 11 -7 9 2 19 8 21 14 2 7 8 12 14 12 6 0
7 -7 4 -16 -5 -13 -4 -14 7 -6 10 9 17 8 27 -1 12 -10 12 -9 2 4 -6 9 -10 18
-7 20 2 3 -4 5 -13 5 -39 2 -62 16 -62 39 0 7 3 7 8 0 8 -11 48 -35 58 -35 4
0 1 7 -6 15 -7 9 -10 18 -7 21 3 3 10 -4 17 -15 9 -17 14 -19 31 -11 11 6 16
16 13 22 -4 7 -2 8 5 4 9 -6 9 -11 1 -21 -8 -10 -7 -14 2 -17 10 -4 10 -8 -1
-21 -7 -10 -9 -17 -3 -17 5 0 13 7 16 16 6 15 9 15 29 -2 13 -12 17 -13 9 -3
-6 9 -8 20 -4 24 4 5 2 6 -3 2 -15 -8 -40 8 -26 17 6 4 11 3 11 -2 0 -4 14 -8
30 -8 17 0 30 3 30 8 0 4 5 8 11 8 5 0 8 -4 5 -9 -3 -5 1 -12 10 -15 13 -5 15
-2 11 14 -5 20 -4 20 18 -2 13 -13 20 -28 17 -37 -5 -13 -2 -12 12 2 10 9 22
14 28 11 7 -4 8 -2 4 4 -4 6 -14 9 -24 6 -9 -3 -6 2 8 10 14 8 30 15 35 15 6
1 4 -3 -3 -8 -11 -7 -10 -9 3 -14 10 -5 14 -3 9 4 -4 7 -1 10 7 7 8 -3 13 -11
11 -17 -1 -7 2 -10 7 -7 5 4 12 0 15 -6 3 -9 5 -8 3 2 -1 8 3 16 8 17 6 0 9
-3 7 -9 -1 -5 2 -7 8 -3 17 10 -8 34 -30 30 -10 -2 -24 3 -31 11 -8 10 -8 14
0 14 6 0 11 -4 11 -9 0 -5 8 -8 18 -6 9 1 26 -3 37 -10 17 -10 24 -10 38 0 19
14 23 30 5 18 -19 -11 -37 -12 -43 -3 -6 10 14 27 40 32 11 2 19 11 17 19 -3
11 -1 11 9 2 14 -14 53 2 44 18 -4 5 -2 9 3 9 6 0 13 -8 17 -17 6 -16 8 -16
25 5 11 13 21 18 25 12 3 -6 10 -8 15 -5 5 3 11 1 15 -4 3 -6 -6 -8 -22 -5
-21 3 -24 2 -13 -6 10 -6 11 -10 3 -10 -7 0 -13 -4 -13 -8 0 -5 6 -9 14 -9 8
0 14 3 13 6 -1 3 3 7 8 9 6 2 21 13 34 25 23 21 24 21 18 2 l-7 -20 16 20 c8
11 20 19 25 18 5 -2 8 0 8 5 -3 20 2 32 12 26 8 -5 8 -1 0 14 -10 19 -9 20 22
11 21 -6 33 -6 35 1 2 6 8 8 13 4 5 -3 8 -2 7 3 -2 4 1 9 6 10 5 0 13 8 18 17
5 9 13 14 19 11 5 -3 6 1 3 10 -7 17 -30 14 -27 -4 3 -10 -10 -15 -30 -12 -5
1 -5 -4 -1 -10 5 -8 3 -9 -6 -4 -9 6 -11 4 -5 -5 6 -9 4 -11 -5 -5 -9 6 -11 4
-5 -5 6 -10 4 -11 -6 -4 -8 5 -18 9 -23 9 -5 0 -10 6 -12 13 -1 7 0 8 3 2 3
-7 10 -4 19 7 13 17 14 17 7 -2 -6 -17 -5 -18 10 -7 20 17 12 43 -11 35 -9 -4
-14 -3 -10 1 10 12 42 14 55 4 7 -5 14 -5 18 2 3 5 1 10 -6 10 -7 0 -5 6 6 14
10 7 27 11 37 8 14 -3 17 0 11 13 -4 13 -3 16 6 11 6 -4 9 -16 6 -27 -4 -11
-2 -19 5 -19 6 0 8 5 5 10 -3 6 -1 10 5 10 8 0 8 6 0 23 l-11 22 17 -22 c13
-19 20 -21 37 -12 16 9 22 8 29 -5 5 -9 14 -16 20 -16 6 0 5 7 -3 17 -12 15
-12 16 1 8 8 -5 23 -19 33 -32 15 -19 22 -21 39 -12 15 8 19 8 14 0 -9 -15 15
-47 34 -46 8 1 20 -3 27 -7 7 -6 15 -3 22 9 6 10 11 14 11 10 0 -4 -8 -20 -17
-35 -17 -27 -17 -27 3 -9 13 11 28 15 39 11 14 -6 16 -4 10 7 -5 8 -5 11 1 6
5 -5 9 -12 9 -15 0 -4 4 -13 9 -20 4 -7 5 -16 2 -19 -3 -4 -6 -1 -6 6 0 7 -5
9 -12 5 -7 -5 -8 -3 -3 6 5 9 4 11 -3 6 -7 -4 -12 -2 -12 3 0 23 -18 10 -29
-19 -6 -18 -6 -28 -1 -25 6 4 10 13 10 21 0 18 10 17 34 -1 10 -8 24 -12 29
-8 6 4 8 0 4 -10 -5 -14 -3 -15 18 -5 22 10 25 38 3 38 -6 0 -7 -8 -3 -18 5
-14 4 -15 -6 -5 -9 9 -10 16 -3 23 12 12 47 2 38 -11 -8 -13 10 -11 26 4 12
10 12 9 2 -4 -6 -9 -8 -20 -4 -24 4 -5 2 -5 -4 -2 -7 4 -23 -3 -35 -14 l-24
-21 27 16 c17 10 29 12 33 6 3 -6 1 -10 -5 -10 -6 0 -8 -5 -4 -11 4 -8 9 -7
15 2 4 7 5 17 2 23 -4 5 1 7 11 3 10 -4 19 -1 22 8 7 18 25 20 21 3 -1 -7 6
-12 16 -10 9 2 17 -1 17 -7 0 -10 -18 -10 -35 1 -5 3 -19 -4 -30 -15 l-20 -20
22 12 c28 14 36 14 27 -1 -5 -7 -3 -8 7 -2 20 12 39 14 39 3 0 -6 4 -7 10 -4
6 3 10 -2 10 -11 0 -10 3 -15 6 -11 9 9 -6 48 -17 42 -5 -4 -9 -2 -9 3 0 6 21
9 48 7 26 -1 54 2 62 9 13 10 13 9 1 -7 -8 -10 -9 -17 -3 -17 6 0 14 5 17 11
5 7 13 5 24 -5 15 -14 19 -14 39 0 12 8 27 12 34 8 8 -5 9 -1 4 12 -5 14 -4
16 4 8 9 -9 7 -19 -7 -40 l-18 -29 36 28 c37 28 59 34 59 17 0 -5 -7 -7 -15
-4 -11 5 -13 2 -9 -11 5 -11 10 -13 17 -6 7 7 16 7 29 0 16 -9 19 -7 16 8 -2
11 2 17 11 15 8 -2 11 3 8 11 -3 7 3 13 13 14 17 2 17 0 3 -17 -9 -11 -21 -16
-26 -13 -6 3 -7 1 -3 -5 7 -12 36 -5 36 9 0 5 4 9 10 9 5 0 9 -3 9 -7 -1 -5
-1 -15 0 -23 1 -12 4 -11 12 3 8 13 7 23 -3 35 -12 16 -11 16 6 2 18 -14 18
-13 11 10 -9 29 -3 25 15 -9 10 -19 10 -22 -2 -16 -7 5 -10 5 -6 0 4 -4 3 -14
-3 -22 -6 -7 -7 -13 -3 -13 5 0 15 9 22 21 11 16 16 18 28 9 8 -7 14 -9 14 -4
0 4 7 -1 16 -12 14 -18 15 -18 4 4 -8 16 -8 22 1 22 6 0 8 7 5 16 -4 9 -1 23
5 30 8 10 8 14 0 14 -6 0 -11 5 -11 12 0 9 3 9 12 0 14 -14 32 -16 24 -3 -4 5
2 8 11 6 10 -2 18 -4 18 -5 0 -1 9 -3 20 -5 l20 -4 -20 16 c-18 14 -18 15 -1
9 13 -5 17 -2 13 9 -4 8 -2 17 3 20 4 3 7 -6 5 -20 -1 -16 4 -29 15 -35 12 -6
17 -5 17 5 0 8 -3 12 -7 10 -4 -2 -7 2 -7 9 0 9 9 13 23 10 18 -3 22 0 20 19
-2 14 2 24 10 24 7 0 12 -8 11 -18 -1 -10 -6 -15 -12 -11 -5 3 -3 -3 5 -14 8
-10 15 -20 16 -22 1 -2 2 7 2 20 1 13 3 30 5 38 4 21 26 57 27 45 0 -6 -4 -15
-10 -21 -14 -14 21 -33 45 -23 18 7 18 8 2 8 -12 1 -16 5 -11 14 5 7 0 6 -12
-3 -17 -13 -18 -13 -7 0 6 8 12 20 13 25 1 6 4 12 7 15 4 3 3 -1 -1 -7 -4 -7
-2 -13 4 -13 6 0 13 7 16 15 4 8 10 15 15 15 5 0 2 -11 -7 -25 -16 -24 -16
-25 1 -18 14 5 16 3 10 -7 -5 -9 -4 -11 4 -6 9 6 9 11 1 21 -11 13 2 29 25 30
6 0 9 8 7 17 -2 12 5 15 27 13 33 -3 34 8 8 48 -10 15 -14 27 -10 27 5 0 14
-9 21 -20 7 -11 17 -20 24 -20 7 0 3 7 -8 15 -10 8 -15 15 -10 15 5 0 2 8 -5
18 -12 15 -12 16 2 5 9 -7 19 -10 23 -6 4 4 4 0 0 -10 -3 -9 -2 -17 4 -17 14
0 8 30 -8 40 -9 6 -7 10 9 15 14 4 20 12 17 21 -3 7 -2 13 2 13 21 -3 24 3 6
16 -18 15 -18 15 0 8 14 -4 17 -3 12 6 -4 6 -4 10 1 9 4 -2 10 2 11 7 8 23 26
35 43 30 11 -4 19 -2 19 4 0 6 10 20 23 31 20 19 20 21 2 14 -17 -7 -18 -6 -7
8 9 11 10 18 2 23 -10 6 -14 -1 -11 -18 1 -5 -3 -6 -8 -3 -6 4 -8 -4 -5 -18 2
-14 0 -28 -6 -31 -5 -3 -10 -1 -10 5 0 6 -6 8 -12 4 -7 -4 -4 2 6 14 17 20 10
33 -8 15 -10 -11 -37 -12 -30 -2 3 5 9 7 14 4 4 -3 13 2 20 10 12 14 7 20 -15
15 -5 -1 -6 2 -2 6 12 12 38 14 31 2 -4 -6 -1 -8 7 -6 8 3 13 10 12 16 -1 5 5
16 15 24 15 11 16 11 4 -3 -10 -14 -10 -18 4 -23 9 -4 19 -4 22 -1 3 3 0 5 -6
5 -7 0 -12 4 -12 10 0 5 5 9 11 7 6 -1 14 5 16 13 4 13 3 13 -6 0 -10 -14 -16
-7 -11 15 1 5 -7 15 -16 22 -17 12 -17 13 0 13 9 0 15 4 11 9 -3 5 -1 12 4 15
4 3 8 -2 8 -12 0 -40 3 -45 16 -33 8 6 18 7 22 3 5 -4 5 -2 1 5 -4 7 -14 10
-24 7 -16 -5 -16 -5 0 8 15 13 15 15 -3 26 -11 7 -25 10 -31 6 -7 -5 -8 -3 -4
5 5 7 14 10 21 7 8 -3 19 2 26 11 11 13 10 17 -4 28 -14 10 -15 14 -5 18 10 4
10 6 1 6 -7 1 -13 5 -13 11 0 5 7 7 15 4 19 -8 9 25 -13 44 -11 8 -12 12 -3
12 7 0 9 5 5 13 -6 9 -4 9 8 -1 11 -9 18 -10 23 -2 3 5 1 10 -4 10 -6 0 -11 8
-11 18 1 15 2 15 12 -3 15 -25 19 -47 8 -40 -5 3 -7 -3 -5 -12 2 -10 4 -24 4
-30 1 -7 6 -13 11 -13 7 0 7 6 0 20 -7 12 -7 20 -1 20 13 0 9 39 -7 67 -11 19
-10 22 3 17 8 -3 12 -10 9 -15 -3 -5 2 -9 12 -9 11 0 15 -6 11 -20 -3 -11 -1
-17 4 -14 6 3 9 13 8 22 -3 26 19 72 33 70 8 -2 13 7 13 24 0 14 4 30 9 35 5
5 6 3 2 -5 -9 -16 29 -11 46 6 15 15 28 15 28 0 0 -6 -3 -9 -6 -5 -4 3 -13 -1
-21 -9 -8 -8 -18 -12 -23 -9 -5 3 -12 1 -15 -5 -4 -7 5 -10 24 -8 16 1 28 5
25 9 -2 4 6 9 17 12 12 3 18 10 15 16 -4 6 2 8 14 6 26 -5 52 4 44 16 -3 5 2
12 10 15 9 3 13 11 9 18 -3 6 -3 8 2 4 4 -4 14 -3 22 4 11 9 12 7 7 -8 -6 -16
-5 -17 7 -7 7 7 17 13 23 13 5 0 2 -6 -7 -12 -14 -12 -14 -15 -2 -32 8 -11 15
-15 15 -9 0 7 -4 14 -10 18 -5 3 -1 14 10 25 25 25 34 25 20 1 -15 -30 -11
-39 5 -11 8 14 14 19 15 11 0 -8 3 -12 6 -9 3 4 0 17 -7 30 -6 12 -8 20 -4 15
5 -4 17 0 27 10 10 9 18 12 18 7 0 -5 5 -2 10 6 6 10 10 11 10 3 0 -7 4 -13 9
-13 11 0 9 19 -4 40 -7 12 -6 13 6 3 10 -8 20 -9 29 -2 13 8 13 10 0 20 -13 9
-13 10 0 6 8 -2 15 -11 15 -20 0 -8 4 -19 8 -23 4 -4 7 0 7 8 0 11 6 14 20 11
11 -3 17 -10 13 -17 -3 -6 -2 -7 3 -3 5 5 10 13 10 18 1 5 2 14 3 20 0 5 5 8
10 5 5 -3 12 1 15 10 5 14 9 14 24 3 16 -13 16 -13 2 5 -13 18 -13 19 1 14 11
-4 16 -1 15 10 0 9 4 17 11 17 6 0 15 4 20 8 4 5 2 7 -6 5 -7 -2 -15 2 -18 9
-3 7 4 9 19 6 13 -3 20 -3 17 1 -4 4 -20 9 -35 10 -16 2 -27 7 -24 12 3 5 9 8
13 6 4 -1 21 5 38 14 17 8 28 11 25 6 -3 -6 1 -12 9 -15 10 -4 12 -1 8 10 -4
11 -2 14 5 9 8 -5 10 -1 5 10 -4 11 -3 15 4 11 13 -8 11 19 -2 30 -4 4 -5 2 0
-6 5 -10 4 -12 -4 -7 -7 5 -10 2 -9 -6 2 -7 -3 -13 -11 -13 -8 0 -15 6 -17 13
-1 7 0 8 3 2 2 -5 9 -10 14 -10 6 0 5 8 -1 20 -9 16 -8 19 6 13 13 -5 15 -3 9
8 -8 12 -6 12 8 0 13 -11 20 -11 32 -1 8 6 20 9 27 5 7 -4 4 0 -6 9 -17 14
-17 16 -3 22 20 7 22 35 5 52 -7 7 -8 12 -4 12 5 0 4 6 -2 13 -8 10 -6 13 7
13 13 0 17 -5 13 -16 -5 -13 -3 -13 11 -2 8 8 13 20 10 28 -3 8 -1 14 4 14 5
0 9 -11 9 -24 0 -14 -4 -22 -10 -19 -5 4 -6 1 -1 -7 6 -9 4 -11 -5 -5 -9 6
-11 4 -5 -5 6 -9 4 -11 -6 -5 -8 5 -5 -1 5 -13 11 -12 21 -22 24 -22 3 0 2 3
-1 7 -4 3 1 12 11 20 16 12 15 13 -3 6 -19 -6 -19 -6 -2 14 12 14 15 23 7 28
-5 3 -7 11 -4 17 4 6 10 5 16 -3 8 -11 9 -10 4 3 -3 10 -1 20 5 24 7 4 6 10
-1 19 -7 8 -7 15 -1 19 5 3 12 0 15 -6 3 -7 3 -3 0 9 -4 19 -2 22 13 17 13 -4
15 -3 5 4 -8 5 -13 12 -13 16 3 23 0 30 -8 16 -6 -8 -7 -18 -5 -22 3 -4 0 -8
-6 -8 -6 0 -9 -4 -5 -9 3 -5 1 -13 -5 -16 -8 -5 -7 -11 1 -21 8 -10 8 -14 0
-14 -6 0 -11 5 -11 11 0 5 -4 8 -9 4 -5 -3 -13 0 -17 6 -4 7 -3 10 2 7 14 -9
31 15 29 39 -1 12 1 20 4 19 3 -2 14 7 24 20 17 22 17 24 0 33 -10 5 -22 9
-26 9 -5 0 -12 3 -15 7 -4 4 0 5 8 3 8 -2 14 3 13 10 -2 6 2 12 8 12 6 0 9 -6
6 -14 -7 -19 19 -28 32 -12 7 9 7 16 -1 24 -9 9 -9 15 0 24 14 14 16 32 3 24
-11 -7 -9 21 2 29 4 3 5 2 2 -1 -2 -4 2 -16 10 -27 10 -14 11 -25 4 -39 -5
-10 -7 -18 -3 -18 3 0 1 -6 -5 -13 -6 -8 -7 -18 -3 -22 4 -5 2 -5 -4 -2 -6 3
-11 0 -11 -8 0 -17 16 -21 18 -5 2 11 5 25 9 38 1 4 2 10 1 15 -2 11 13 9 26
-4 8 -8 13 -7 18 2 5 7 4 10 -2 6 -6 -4 -16 0 -23 8 -11 14 -7 19 12 16 4 0 5
6 1 15 -5 13 -7 13 -14 2 -7 -10 -9 -9 -10 5 -3 30 -4 35 -11 42 -4 4 -3 16 2
26 6 9 7 26 4 36 -4 14 -3 15 4 4 5 -7 12 -9 14 -5 5 9 1 -7 -9 -36 -4 -12 -3
-12 5 -1 6 8 12 10 16 3 4 -6 -2 -15 -11 -21 -17 -10 -17 -10 0 -11 9 0 17 5
17 10 0 20 2 25 13 40 10 13 10 13 -5 1 -11 -8 -18 -9 -18 -3 0 6 5 14 12 18
8 5 2 12 -17 21 l-30 12 34 -2 c26 -2 35 2 37 16 2 18 2 18 -17 1 -12 -11 -19
-13 -19 -5 0 7 -5 9 -10 6 -6 -4 -10 -3 -9 2 3 18 -1 34 -9 29 -4 -2 -8 4 -8
15 0 21 5 17 31 -26 10 -16 12 -16 24 -1 12 14 12 16 -5 9 -16 -6 -17 -4 -6 9
7 8 9 24 5 33 -4 13 -3 16 5 11 8 -5 10 -2 6 9 -5 11 -2 14 12 9 15 -5 16 -4
4 4 -8 6 -18 8 -22 6 -4 -3 -8 -1 -8 4 0 6 -8 9 -17 7 -10 -1 -12 0 -5 2 6 3
12 9 12 14 0 6 -5 7 -10 4 -6 -4 -10 -3 -9 2 4 21 -2 34 -13 27 -7 -5 -8 -3
-3 6 6 10 12 7 26 -11 21 -27 25 -19 7 14 -17 31 -19 49 -6 64 6 8 8 17 4 20
-4 4 -11 1 -16 -7 -6 -8 -10 -10 -10 -5 0 6 4 17 10 25 5 9 5 19 -1 26 -7 8
-6 15 2 20 8 5 10 3 4 -7 -5 -9 -1 -8 10 3 17 16 12 44 -6 33 -5 -4 -9 -1 -9
4 0 6 5 11 11 11 5 0 7 5 3 11 -10 17 -25 -12 -18 -36 5 -16 4 -18 -7 -7 -11
10 -11 19 -1 44 9 25 9 35 -1 46 -10 13 -8 14 13 7 14 -4 22 -4 18 0 -11 11
-68 16 -68 5 0 -5 5 -12 12 -16 7 -5 9 -2 4 7 -4 8 -1 6 8 -5 12 -14 12 -22 3
-37 -6 -10 -13 -16 -16 -14 -2 3 2 11 8 19 10 12 8 16 -7 20 -11 4 -22 16 -25
26 -3 11 -1 18 4 14 5 -3 9 -1 9 4 0 6 8 9 18 7 9 -1 11 0 5 2 -7 3 -13 9 -13
14 0 5 -5 9 -11 9 -5 0 -8 -4 -5 -8 3 -5 -1 -9 -9 -9 -8 0 -12 4 -9 9 3 4 1 8
-4 8 -17 0 -21 28 -7 40 12 10 13 8 10 -9 -5 -26 11 -37 18 -12 8 31 -7 45
-32 31 -22 -11 -22 -11 -7 12 13 20 13 26 1 42 -11 14 -12 24 -4 40 10 20 9
20 -5 2 -9 -10 -13 -23 -9 -29 4 -6 1 -7 -6 -3 -7 5 -10 15 -7 23 4 8 -4 23
-16 35 -18 16 -19 18 -5 14 11 -4 16 -2 12 5 -4 6 -13 8 -21 5 -16 -6 -33 21
-29 47 2 9 -1 15 -6 11 -5 -3 -9 0 -9 5 0 6 5 11 12 11 6 0 8 3 4 7 -4 5 -14
-1 -22 -11 -8 -11 -14 -16 -14 -12 0 5 -8 2 -17 -5 -10 -7 -15 -10 -11 -5 8 9
-8 29 -32 40 -10 4 -8 5 5 3 13 -3 27 5 40 22 14 19 14 22 3 13 -14 -11 -18
-10 -27 7 -11 20 -41 19 -41 -1 0 -5 4 -7 9 -4 4 3 16 -1 26 -8 17 -13 17 -14
-8 -13 -18 0 -29 6 -33 20 -5 16 -8 17 -16 6 -6 -10 -7 -6 -2 11 4 14 11 28
16 31 5 3 2 9 -7 12 -9 4 -14 3 -11 -1 6 -9 -15 -36 -31 -39 -7 -2 -10 4 -7
12 4 8 10 12 15 9 5 -3 9 7 9 21 0 18 4 24 13 19 7 -5 6 0 -3 11 -39 50 -63
74 -71 70 -4 -3 -10 -1 -13 4 -7 11 13 9 33 -3 10 -7 12 -4 6 13 -4 13 -2 21
5 21 6 0 8 -4 5 -10 -3 -5 -2 -10 3 -10 17 0 22 13 9 29 -10 14 -10 14 5 3 19
-15 20 -55 1 -48 -7 3 -15 0 -19 -6 -4 -7 -3 -8 4 -4 8 4 12 0 12 -11 1 -16 2
-16 13 2 11 20 13 25 16 46 0 5 6 7 11 4 6 -3 10 -2 10 3 0 4 -15 16 -32 26
-18 9 -25 15 -16 12 9 -3 28 6 43 20 27 25 45 31 45 14 0 -5 -6 -9 -12 -7 -7
1 -12 -4 -10 -11 1 -8 -2 -11 -9 -6 -8 4 -9 3 -5 -4 5 -8 2 -10 -8 -6 -9 3
-16 1 -16 -5 0 -6 3 -10 8 -10 4 1 9 0 12 -1 19 -7 39 -7 34 1 -3 5 1 9 8 9 9
0 9 3 -2 10 -14 9 -7 15 14 11 5 -1 2 9 -7 23 -15 22 -15 25 0 30 12 5 13 9 3
21 -9 10 -9 15 -1 15 6 0 11 -3 11 -7 0 -5 12 -14 27 -20 l26 -13 -24 27 -24
26 23 -12 c13 -7 26 -10 30 -7 3 3 -1 6 -8 6 -9 0 -7 5 6 16 18 15 18 15 -2 5
-12 -6 -24 -7 -28 -4 -10 10 14 32 30 26 10 -4 12 0 8 11 -3 9 -10 14 -14 11
-4 -3 -10 2 -13 10 -4 10 -1 12 11 8 15 -6 16 -5 2 12 -13 17 -13 18 0 10 20
-12 51 -7 72 12 9 8 22 12 29 7 8 -5 10 -3 5 5 -5 7 -14 10 -22 7 -15 -6 -37
27 -26 39 4 5 0 6 -9 3 -9 -4 -16 -1 -16 7 0 7 6 11 14 8 8 -3 12 0 10 8 -2 8
-2 11 0 6 3 -4 9 -5 13 -2 5 3 12 0 16 -6 5 -8 3 -9 -7 -4 -8 5 -11 5 -7 0 4
-4 3 -14 -3 -21 -7 -9 -6 -14 3 -20 7 -4 10 -4 6 1 -4 4 -1 13 6 21 8 7 12 27
10 44 -2 17 0 28 5 25 5 -3 13 -1 16 5 4 6 1 9 -6 8 -6 -2 -14 3 -17 11 -3 9
0 11 8 6 9 -5 11 -4 6 4 -4 6 -13 8 -19 5 -7 -4 -9 -4 -5 1 4 4 3 14 -4 22 -6
7 -8 16 -4 20 3 3 6 1 6 -5 0 -6 10 -17 23 -23 21 -11 21 -11 6 7 -23 28 -34
48 -21 40 6 -3 13 -2 17 4 4 6 -6 11 -22 11 -24 2 -25 2 -5 6 12 2 20 9 16 14
-3 5 -11 6 -17 3 -7 -4 -9 -4 -5 1 4 4 3 14 -3 21 -7 9 -6 12 8 9 10 -1 17 -8
16 -14 -2 -6 2 -11 7 -11 18 0 10 29 -10 35 -11 3 -20 10 -20 15 0 6 10 6 24
0 18 -6 28 -5 36 5 10 11 7 13 -15 9 -20 -3 -25 -1 -19 8 13 20 15 46 4 53 -6
4 -8 11 -4 16 3 6 12 3 21 -8 13 -16 13 -16 3 5 -9 17 -15 21 -24 13 -7 -6
-16 -8 -20 -4 -4 4 4 13 16 20 13 7 18 12 11 13 -8 0 -10 7 -6 17 6 15 5 16
-9 3 -11 -11 -12 -17 -4 -22 6 -5 7 -8 1 -9 -39 -6 -54 -5 -49 2 2 4 12 5 22
2 12 -5 10 1 -8 23 -14 15 -17 22 -7 15 24 -19 21 1 -4 22 -12 11 -18 25 -15
33 3 9 1 24 -5 35 -7 15 -7 24 2 35 10 12 8 14 -7 11 -11 -1 -24 -6 -30 -9 -6
-4 -11 -1 -11 7 0 8 3 13 5 10 3 -3 12 1 20 8 13 10 14 9 7 -2 -5 -10 -4 -12
4 -7 6 4 8 12 5 18 -4 7 2 8 17 3 13 -4 21 -4 17 0 -11 11 -58 15 -58 4 0 -5
-5 -9 -11 -9 -5 0 -7 5 -3 12 5 8 1 9 -12 5 -17 -6 -17 -6 -2 6 12 10 14 17 6
31 -8 15 -8 17 2 11 8 -5 11 -4 6 3 -3 6 -2 13 4 17 5 3 10 12 10 18 0 7 -4 6
-10 -3 -5 -8 -25 -15 -44 -16 -28 -1 -33 2 -27 14 5 8 6 24 3 35 -3 13 -1 18
6 13 6 -3 9 -17 6 -29 -3 -19 1 -23 16 -22 11 1 23 5 27 10 5 4 3 5 -3 2 -7
-4 -18 0 -25 9 -11 13 -9 14 13 9 15 -4 29 -2 32 4 4 7 1 8 -9 5 -25 -10 -67
23 -61 49 3 12 3 17 0 11 -3 -8 -16 -2 -36 16 -19 18 -27 33 -23 41 6 8 4 10
-4 5 -7 -5 -10 -15 -7 -23 3 -8 2 -11 -3 -8 -5 3 -12 1 -15 -4 -3 -5 1 -11 9
-15 8 -3 15 -1 15 5 0 6 5 7 11 4 14 -9 6 -16 -24 -19 -20 -2 -25 1 -22 15 2
10 -1 21 -6 24 -5 4 -7 11 -4 16 4 5 -1 9 -10 9 -10 0 -13 -5 -9 -12 4 -8 3
-10 -2 -5 -5 5 -9 12 -9 15 -1 18 -17 31 -33 25 -9 -3 -14 -3 -11 1 9 10 50
16 45 7 -3 -4 6 -13 20 -20 14 -6 23 -15 19 -20 -3 -5 -1 -12 5 -16 13 -8 13
18 -1 32 -8 8 -8 17 1 34 11 24 11 24 -10 -1 l-21 -25 5 25 c3 14 3 19 0 11
-5 -11 -10 -8 -21 10 l-14 24 7 -25 c6 -22 5 -23 -9 -12 -9 8 -13 21 -10 30 4
14 3 15 -5 2 -8 -10 -7 -19 1 -30 6 -8 7 -12 2 -7 -4 4 -18 -1 -29 -10 -20
-17 -20 -17 -7 0 8 10 16 29 17 43 2 21 0 23 -11 14 -8 -6 -11 -19 -8 -28 4
-14 3 -14 -5 -3 -7 10 -7 21 0 34 7 14 7 17 -1 13 -6 -4 -11 -3 -11 2 0 17
-30 9 -36 -10 -3 -10 -10 -15 -16 -12 -6 4 -5 9 3 15 7 4 10 11 6 15 -4 4 -12
3 -18 -3 -6 -6 -18 -9 -26 -6 -12 5 -12 7 -2 14 8 4 10 11 6 15 -3 4 -12 2
-20 -4 -19 -16 -39 -1 -21 16 9 8 14 9 14 2 0 -6 5 -8 12 -4 6 4 16 1 22 -7
12 -16 46 -22 46 -8 0 5 -9 9 -21 9 -11 0 -18 4 -15 8 2 4 -4 9 -15 9 -12 1
-27 7 -34 13 -16 13 -9 43 8 33 6 -4 7 -1 2 7 -6 10 -12 7 -25 -10 -11 -15
-19 -19 -24 -11 -4 6 -2 11 3 11 6 0 11 5 11 11 0 8 -4 8 -15 -1 -11 -9 -20
-8 -45 10 -20 14 -30 17 -28 8 2 -9 -6 -12 -25 -11 -23 2 -26 -1 -17 -12 8
-10 8 -15 -1 -21 -7 -4 -9 -3 -5 4 3 6 -3 17 -15 25 -11 8 -16 18 -11 21 6 3
13 0 15 -6 4 -10 6 -10 6 0 1 10 6 10 21 2 14 -7 20 -7 20 0 0 5 -7 11 -15 11
-32 3 -36 4 -46 19 -9 13 -10 13 -6 0 2 -8 -2 -20 -9 -27 -16 -17 -29 -17 -17
0 17 22 13 56 -8 62 -10 4 -19 11 -19 16 0 13 13 11 30 -3 8 -7 7 -4 -3 8 -9
11 -15 23 -12 26 3 3 -5 3 -18 1 -17 -3 -26 1 -31 14 -6 14 -4 15 5 6 13 -13
39 -7 39 9 0 6 -6 5 -15 -2 -13 -11 -22 -1 -12 14 1 2 -7 13 -17 25 -16 17
-17 24 -7 34 10 9 11 8 5 -7 -7 -19 -7 -19 12 0 11 10 16 21 11 22 -4 2 -3 10
4 18 10 12 9 13 -6 8 -14 -6 -16 -4 -10 7 8 12 6 12 -8 0 -13 -10 -20 -11 -31
-2 -9 7 -17 8 -20 2 -3 -5 -1 -11 6 -13 8 -3 6 -6 -4 -10 -16 -7 -20 14 -5 28
12 12 8 22 -10 27 -17 4 -17 5 -1 6 10 0 22 -8 28 -20 9 -16 14 -18 26 -8 8 6
14 16 14 22 0 6 -7 2 -16 -9 -14 -18 -15 -18 -10 6 3 14 3 19 0 12 -3 -6 -10
-10 -15 -6 -5 3 -5 14 2 25 6 12 8 23 5 27 -3 3 -6 1 -6 -5 0 -5 -7 -10 -15
-10 -16 0 -20 12 -7 20 4 2 2 2 -5 1 -8 -2 -11 8 -8 31 5 34 -17 56 -31 33 -5
-7 -2 -8 6 -3 9 6 11 4 5 -5 -5 -8 -4 -11 3 -6 11 7 10 -19 -2 -31 -11 -12
-25 18 -20 46 4 24 3 24 -9 9 -8 -10 -17 -15 -20 -12 -11 11 21 34 37 28 9 -3
16 -1 16 6 0 6 -5 8 -11 4 -7 -4 -10 -1 -7 7 3 8 12 12 19 11 8 -2 10 0 6 5
-11 10 -68 13 -61 2 2 -4 11 -6 19 -2 21 7 19 1 -7 -21 -17 -15 -20 -15 -15
-2 4 9 -2 22 -16 32 -15 11 -17 15 -4 11 9 -4 17 -2 17 3 0 6 -4 10 -9 10 -6
0 -8 9 -6 20 2 12 -2 23 -10 26 -11 5 -12 11 -4 26 6 11 8 22 6 25 -3 2 -8 -5
-12 -16 -3 -12 -11 -19 -16 -15 -6 3 -5 12 3 22 10 12 10 14 1 8 -8 -4 -13 -2
-13 4 0 7 -8 9 -19 5 -13 -4 -27 1 -40 14 -21 21 -37 28 -27 13 3 -5 -1 -9 -9
-9 -13 0 -13 2 -1 16 10 11 12 21 6 31 -9 14 -11 13 -14 -9 0 -5 -4 -12 -8
-16 -8 -9 -5 16 5 32 4 6 3 14 -3 18 -5 3 -10 0 -10 -7 0 -10 -2 -10 -9 1 -7
11 -10 11 -15 0 -3 -8 -3 -3 0 10 5 17 3 21 -6 16 -8 -5 -11 -4 -6 3 4 6 13 9
21 6 8 -4 13 -10 10 -14 -3 -5 3 -7 12 -6 20 3 28 21 14 31 -7 4 -8 0 -4 -11
6 -15 4 -15 -18 -1 -25 17 -44 17 -69 3 -8 -5 -12 -5 -7 -1 4 5 0 19 -9 33 -9
13 -12 22 -8 19 5 -3 10 7 10 21 1 15 -1 21 -3 14 -3 -6 -9 -10 -13 -7 -5 3
-6 13 -3 22 6 15 5 16 -9 3 -15 -13 -15 -17 -2 -26 16 -13 20 -29 4 -19 -15 9
-12 -6 5 -25 13 -14 13 -17 1 -17 -8 0 -14 5 -13 11 1 6 -4 10 -10 8 -15 -2
-17 14 -3 23 6 4 4 13 -6 23 -15 15 -15 16 2 23 18 7 18 8 1 8 -12 1 -16 6
-11 14 6 10 4 10 -7 0 -19 -18 -34 -16 -19 2 7 9 10 18 6 22 -3 3 -6 0 -6 -8
0 -12 -2 -11 -10 1 -8 11 -9 9 -6 -10 3 -14 5 -29 5 -34 1 -5 9 -2 19 5 15 13
16 12 3 -3 -7 -10 -15 -18 -16 -18 -2 0 -12 15 -23 34 -16 27 -26 34 -51 32
-17 0 -31 -5 -31 -11 0 -5 -5 -3 -10 5 -8 12 -10 12 -10 1 0 -8 -3 -11 -7 -8
-3 4 -13 1 -21 -6 -10 -8 -13 -8 -9 -1 4 7 0 15 -9 18 -12 5 -13 10 -5 19 8
10 7 17 -1 25 -17 17 -33 15 -18 -3 9 -10 9 -15 1 -15 -6 0 -11 5 -11 11 0 5
-4 8 -8 5 -4 -2 -8 4 -8 15 0 14 5 17 18 13 10 -3 18 -1 18 4 0 18 -43 7 -46
-12 -1 -10 -8 -24 -15 -30 -9 -8 -9 -6 0 12 12 22 10 23 -21 21 -61 -3 -73 0
-60 13 8 8 15 9 20 3 10 -14 35 -18 26 -4 -4 8 1 9 17 5 20 -6 21 -5 6 4 -9 6
-22 8 -27 5 -5 -3 -19 -1 -31 6 -15 8 -19 8 -15 0 4 -6 3 -11 -2 -11 -17 0
-22 13 -10 29 9 11 6 10 -9 -2 -16 -14 -22 -15 -26 -5 -4 10 -6 10 -6 -1 -1
-11 -4 -11 -16 -1 -8 7 -12 17 -8 23 3 6 1 7 -5 3 -6 -4 -21 -2 -32 4 -11 6
-20 8 -20 6 0 -3 13 -12 28 -20 17 -9 28 -23 29 -37 2 -17 0 -20 -6 -10 -7 11
-10 11 -15 0 -3 -8 -3 -3 1 11 5 21 4 23 -9 12 -9 -7 -24 -9 -34 -5 -16 6 -17
4 -7 -8 10 -13 10 -16 -2 -16 -8 0 -12 4 -9 8 2 4 0 10 -5 13 -5 4 -11 1 -14
-6 -2 -8 -3 -7 -3 2 1 9 12 15 28 15 15 1 31 5 35 9 4 5 3 6 -3 3 -7 -4 -14 0
-18 8 -3 8 -11 15 -18 15 -10 0 -10 -2 1 -9 8 -5 9 -11 3 -15 -6 -3 -13 -2
-17 4 -3 5 -13 10 -21 10 -11 0 -13 -6 -9 -20 4 -12 2 -20 -6 -20 -9 0 -9 -3
0 -14 9 -11 9 -16 0 -22 -7 -4 -9 -3 -5 4 3 6 -2 15 -11 21 -11 6 -13 11 -5
11 7 0 10 5 7 10 -5 8 -11 8 -19 1 -7 -6 -16 -7 -21 -3 -4 4 -5 -3 -2 -16 3
-12 1 -20 -4 -16 -5 3 -9 11 -9 19 0 7 -7 12 -16 11 -19 -3 -35 -26 -27 -40 3
-5 1 -6 -5 -2 -8 5 -9 13 -3 24 16 31 6 65 -20 69 -23 3 -23 3 -4 -11 11 -8
16 -18 12 -22 -4 -5 -12 -2 -17 6 -5 8 -12 11 -16 7 -4 -4 -14 -1 -23 6 -14
11 -15 10 -1 -7 14 -18 13 -19 -2 -13 -20 7 -34 -8 -18 -18 6 -4 19 0 28 8 16
14 17 13 18 -16 1 -18 -1 -24 -3 -14 -2 9 -9 17 -14 17 -6 0 -7 -5 -3 -11 5
-8 1 -8 -14 0 -28 15 -35 14 -28 -5 3 -8 2 -13 -3 -9 -5 3 -12 -1 -15 -7 -3
-7 -3 -2 0 12 l5 25 -20 -25 c-20 -24 -20 -24 -14 -2 5 20 15 26 36 23 10 -1
9 11 -3 29 -8 13 -10 12 -10 -2 0 -10 -4 -18 -10 -18 -5 0 -7 8 -4 18 5 15 5
15 -5 0 -7 -10 -20 -14 -33 -12 -23 5 -23 4 0 -6 24 -10 26 -32 4 -36 -7 -1
-8 0 -2 3 16 8 12 19 -9 20 -22 2 -22 -24 0 -38 9 -5 10 -9 2 -9 -6 0 -15 5
-18 10 -4 6 -11 8 -16 5 -5 -4 -9 0 -9 7 0 9 -3 9 -10 -2 -7 -11 -10 -11 -10
-2 0 7 -4 11 -9 7 -6 -3 -14 3 -20 12 -5 10 -13 15 -17 11 -4 -5 -13 -3 -21 4
-8 6 -13 7 -11 2 2 -5 -7 -20 -19 -33 -20 -21 -23 -22 -29 -7 -6 15 -8 15 -21
-4 -8 -11 -19 -20 -24 -20 -15 0 -59 -36 -53 -43 3 -3 -4 -15 -17 -28 -14 -14
-20 -17 -16 -6 3 9 -1 21 -10 29 -15 11 -16 11 -10 -5 4 -11 3 -16 -4 -12 -5
4 -7 15 -4 26 6 17 -3 24 -27 20 -5 0 -8 3 -8 9 0 6 -5 10 -12 10 -6 0 -3 -8
7 -20 10 -11 22 -17 26 -14 5 3 6 -1 4 -8 -3 -8 -16 -14 -28 -15 -12 0 -16 1
-9 4 19 7 14 22 -6 18 -24 -4 -48 10 -33 19 6 4 11 2 11 -4 0 -6 5 -8 10 -5 8
5 7 11 -1 21 -9 11 -8 18 2 31 12 14 12 16 0 8 -11 -6 -13 -4 -7 10 5 15 4 16
-9 5 -13 -11 -13 -15 -3 -22 9 -6 5 -7 -9 -3 -18 5 -22 3 -17 -9 3 -9 11 -13
17 -9 6 4 7 1 2 -7 -6 -10 -12 -7 -26 11 -16 21 -24 20 -20 -3 0 -5 -3 -8 -9
-8 -13 0 -13 17 0 25 5 3 7 12 4 20 -4 8 -10 13 -14 10 -4 -3 -13 2 -20 10 -7
8 -17 12 -22 9 -5 -3 -2 -11 8 -18 15 -11 15 -13 0 -13 -9 0 -17 4 -17 9 -1 4
-2 14 -3 21 -1 6 -8 11 -15 9 -7 -1 -10 2 -6 8 5 9 -15 15 -37 11 -5 0 -8 3
-8 9 0 6 5 10 11 10 5 0 7 5 4 10 -5 8 -11 7 -21 -1 -14 -11 -36 -1 -55 24 -3
5 -9 8 -13 8 -18 -3 -26 0 -26 7 0 5 7 9 15 9 8 0 12 -4 9 -8 -2 -4 5 -6 16
-4 14 3 18 0 14 -8 -4 -7 -3 -9 1 -4 5 4 9 17 10 29 2 19 1 19 -11 4 -12 -16
-13 -16 -22 0 -8 15 -12 15 -31 2 -11 -8 -18 -19 -14 -24 4 -5 1 -3 -7 4 -16
14 -34 16 -26 4 3 -5 -1 -9 -9 -9 -11 0 -10 5 2 24 10 16 12 23 4 23 -7 0 -9
5 -5 11 4 8 9 7 15 -2 4 -7 5 -17 2 -23 -4 -5 -1 -6 7 -1 9 6 11 4 5 -6 -8
-12 -6 -12 8 0 9 7 17 19 17 25 0 6 -5 4 -10 -4 -9 -13 -10 -13 -11 0 -1 8 -1
18 0 22 0 5 -29 3 -36 -2 -11 -9 -34 -2 -66 19 -20 13 -40 21 -44 17 -3 -3 -1
-6 6 -6 7 0 9 -5 6 -11 -5 -7 -14 -4 -28 8 -12 10 -19 14 -15 9 4 -5 3 -15 -2
-21 -8 -10 -3 -12 19 -10 19 2 28 -2 27 -11 -4 -25 -18 -29 -32 -10 -8 11 -14
16 -14 12 0 -5 -6 -4 -12 1 -15 11 -48 13 -48 3 0 -4 -7 -7 -16 -7 -15 0 -14
2 1 13 10 8 22 11 26 8 5 -3 9 0 9 5 0 6 -5 11 -11 11 -5 0 -8 4 -5 8 3 5 -1
9 -9 9 -11 0 -12 -4 -4 -14 9 -9 8 -13 0 -13 -6 0 -14 6 -17 14 -3 8 -13 13
-22 11 -9 -2 -20 -4 -24 -4 -5 -1 -8 -6 -8 -12 0 -8 4 -8 13 0 10 8 18 7 32
-3 16 -12 17 -13 1 -19 -10 -4 -15 -3 -11 3 3 6 -1 10 -9 10 -8 0 -14 -6 -12
-12 1 -7 1 -9 -2 -5 -2 4 -11 0 -19 -10 -13 -17 -13 -16 -3 5 7 15 8 22 0 22
-8 0 -8 6 0 20 6 11 8 20 5 20 -3 0 -8 -7 -12 -16z m-123 -14 c0 -5 -5 -10
-11 -10 -5 0 -7 5 -4 10 3 6 8 10 11 10 2 0 4 -4 4 -10z m85 -20 c5 -8 11 -7
21 1 10 8 14 8 14 0 0 -6 -3 -11 -7 -12 -5 0 -16 -2 -26 -4 -10 -2 -14 1 -10
8 4 7 0 8 -11 4 -10 -4 -15 -3 -11 3 8 13 22 13 30 0z m285 -9 c19 -15 22 -22
12 -33 -6 -8 -8 -19 -4 -23 4 -5 1 -5 -6 -1 -7 4 -10 11 -7 16 3 5 1 11 -5 15
-14 8 -33 45 -23 45 4 0 19 -9 33 -19z m43 -42 c-9 -9 -12 -7 -10 9 1 14 5 18
11 12 7 -7 6 -14 -1 -21z m-543 7 c0 -2 -8 -10 -17 -17 -16 -13 -17 -12 -4 4
13 16 21 21 21 13z m-50 -26 c0 -5 -2 -10 -4 -10 -3 0 -8 5 -11 10 -3 6 -1 10
4 10 6 0 11 -4 11 -10z m-151 -37 c8 -16 8 -24 -1 -29 -6 -4 -8 -3 -4 4 3 6 0
17 -8 25 -8 8 -12 17 -9 21 7 7 7 7 22 -21z m736 17 c3 -6 -1 -7 -9 -4 -18 7
-21 14 -7 14 6 0 13 -4 16 -10z m68 -15 c-3 -9 -8 -14 -10 -11 -3 3 -2 9 2 15
9 16 15 13 8 -4z m-915 -66 c-1 -22 -3 -27 -10 -16 -4 8 -5 22 -2 31 9 24 13
19 12 -15z m1822 -3 c-7 -7 -13 -7 -20 0 -6 6 -3 10 10 10 13 0 16 -4 10 -10z
m317 -13 c2 -6 -1 -14 -6 -18 -7 -4 -8 1 -4 12 5 15 3 16 -8 6 -17 -17 -26
-16 -32 0 -4 10 3 13 21 12 14 0 27 -6 29 -12z m-2106 -10 c13 -16 12 -17 -3
-4 -10 7 -18 15 -18 17 0 8 8 3 21 -13z m1521 -17 c5 -10 7 -20 4 -23 -3 -4
-6 -1 -6 5 0 7 -12 11 -30 10 -31 -2 -39 -12 -17 -22 6 -3 1 -3 -12 0 -18 5
-22 3 -15 -7 6 -11 5 -12 -8 -2 -15 13 -28 8 -28 -9 0 -5 4 -7 9 -3 5 3 12 2
15 -3 2 -4 -4 -9 -15 -9 -10 -1 -19 3 -19 8 0 6 -4 8 -10 4 -5 -3 -7 -13 -4
-23 5 -16 5 -16 -6 0 -6 10 -17 15 -28 11 -12 -4 -14 -3 -7 5 6 6 17 12 25 14
8 2 21 11 28 21 10 13 17 15 26 8 9 -8 19 -4 35 13 26 27 49 28 63 2z m503 -4
c-3 -3 -11 0 -18 7 -9 10 -8 11 6 5 10 -3 15 -9 12 -12z m104 -5 c8 -10 7 -14
-2 -14 -8 0 -14 6 -14 14 0 7 1 13 2 13 2 0 8 -6 14 -13z m46 -7 c3 -6 -1 -7
-9 -4 -18 7 -21 14 -7 14 6 0 13 -4 16 -10z m-685 -36 c0 -8 -19 -13 -24 -6
-3 5 1 9 9 9 8 0 15 -2 15 -3z m926 -16 c4 -7 3 -8 -4 -4 -7 4 -12 2 -12 -4 0
-7 -6 -10 -14 -7 -7 3 -19 0 -25 -6 -9 -9 -11 -8 -5 6 3 10 13 16 20 13 7 -3
16 -1 19 4 8 13 12 12 21 -2z m-1056 -23 c-7 -8 -17 -15 -23 -15 -6 0 -2 7 9
15 25 19 30 19 14 0z m-1514 -8 c4 -3 -4 -4 -16 -2 -30 6 -40 16 -12 12 12 -2
24 -6 28 -10z m2631 -39 c-3 -8 -6 -5 -6 6 -1 11 2 17 5 13 3 -3 4 -12 1 -19z
m-3414 -65 c-7 -2 -9 -12 -6 -21 4 -13 3 -14 -5 -3 -5 7 -8 21 -7 30 2 9 4 18
4 21 1 2 7 -2 14 -9 9 -10 9 -15 0 -18z m677 12 c-7 -8 -17 -15 -23 -15 -6 0
-2 7 9 15 25 19 30 19 14 0z m-310 1 c0 -3 -4 -8 -10 -11 -5 -3 -10 -1 -10 4
0 6 5 11 10 11 6 0 10 -2 10 -4z m-343 -28 c-3 -8 -6 -5 -6 6 -1 11 2 17 5 13
3 -3 4 -12 1 -19z m-83 0 c-3 -4 0 -8 7 -8 7 0 9 -3 6 -6 -4 -4 -13 -1 -21 5
-11 10 -16 9 -24 -5 -5 -9 -15 -14 -21 -10 -6 4 -9 12 -5 17 3 5 10 7 15 4 5
-4 9 -2 9 4 0 5 9 9 19 8 11 0 17 -5 15 -9z m3577 -45 c13 -16 12 -17 -3 -4
-10 7 -18 15 -18 17 0 8 8 3 21 -13z m109 -67 c0 -2 -7 -7 -16 -10 -8 -3 -12
-2 -9 4 6 10 25 14 25 6z m58 -10 c-2 -1 -12 -8 -22 -16 -13 -10 -17 -10 -12
-2 4 6 3 12 -1 12 -5 0 -15 -6 -23 -12 -12 -11 -12 -10 0 5 7 10 19 16 27 13
7 -3 13 -1 13 5 0 6 5 7 11 4 6 -4 9 -8 7 -9z m30 -55 c-6 -2 -6 -6 2 -11 9
-5 9 -9 1 -14 -6 -4 -11 -2 -11 3 0 27 -20 52 -34 43 -5 -3 -6 0 -2 6 5 9 14
7 31 -5 13 -10 19 -20 13 -22z m-4153 -69 c-3 -3 -11 0 -18 7 -9 10 -8 11 6 5
10 -3 15 -9 12 -12z m4170 -10 c-3 -3 -11 0 -18 7 -9 10 -8 11 6 5 10 -3 15
-9 12 -12z m-4270 -21 c3 -5 2 -12 -3 -15 -5 -3 -9 1 -9 9 0 17 3 19 12 6z
m-19 -87 c1 -9 0 -13 -4 -10 -3 4 -7 14 -8 22 -1 9 0 13 4 10 3 -4 7 -14 8
-22z m4384 -35 c0 -5 -4 -9 -8 -9 -5 0 -9 7 -9 15 0 8 4 12 9 9 4 -3 8 -9 8
-15z m-4467 -24 c-3 -9 -8 -14 -10 -11 -3 3 -2 9 2 15 9 16 15 13 8 -4z m-43
-49 c0 -3 -4 -8 -10 -11 -5 -3 -10 -1 -10 4 0 6 5 11 10 11 6 0 10 -2 10 -4z
m4583 -10 c4 -10 0 -12 -15 -8 -15 4 -17 7 -6 13 17 11 15 11 21 -5z m-35 -42
c-3 -14 -5 -12 -10 9 -3 19 -2 25 4 19 6 -6 8 -18 6 -28z m-4598 6 c9 -16 8
-19 -6 -13 -13 5 -15 3 -8 -8 14 -24 12 -35 -6 -35 -10 0 -16 4 -13 9 2 4 -1
16 -8 25 -7 9 -9 14 -5 10 11 -10 38 11 30 23 -3 5 -3 9 0 9 3 0 10 -9 16 -20z
m-53 -100 c-9 -12 -13 -29 -10 -36 7 -19 -6 -18 -29 3 -18 16 -18 17 9 45 31
32 55 23 30 -12z m48 20 c3 -6 -1 -7 -9 -4 -18 7 -21 14 -7 14 6 0 13 -4 16
-10z m-25 -30 c-6 -11 -13 -20 -16 -20 -2 0 0 9 6 20 6 11 13 20 16 20 2 0 0
-9 -6 -20z m4680 -15 c0 -2 -6 -5 -13 -8 -8 -3 -14 1 -14 8 0 7 6 11 14 8 7
-3 13 -6 13 -8z m36 -38 c1 -9 -3 -20 -9 -24 -7 -3 -9 -3 -5 2 4 4 -2 16 -14
27 l-22 18 24 -3 c13 -2 24 -11 26 -20z m-4715 -29 c-11 -11 -13 -10 -7 0 4 7
2 21 -5 30 -12 15 -11 15 6 0 16 -15 17 -20 6 -30z m4684 12 c3 -5 1 -10 -4
-10 -6 0 -11 5 -11 10 0 6 2 10 4 10 3 0 8 -4 11 -10z m228 -79 c4 0 6 -4 5
-8 -4 -10 -22 -4 -26 8 -2 5 -8 9 -13 9 -6 0 -7 -4 -4 -10 3 -6 -1 -7 -9 -4
-9 3 -16 12 -16 20 0 8 -5 14 -11 14 -5 0 -7 -4 -4 -10 3 -5 0 -7 -9 -4 -12 5
-12 9 -3 19 9 10 19 8 47 -10 19 -12 38 -23 43 -24z m-190 24 c-3 -9 -8 -14
-10 -11 -3 3 -2 9 2 15 9 16 15 13 8 -4z m141 -51 c3 -8 2 -12 -4 -9 -6 3 -10
10 -10 16 0 14 7 11 14 -7z m186 -48 c0 -3 -4 -8 -10 -11 -5 -3 -10 -1 -10 4
0 6 5 11 10 11 6 0 10 -2 10 -4z m-5150 -111 c0 -8 -4 -15 -10 -15 -5 0 -7 7
-4 15 4 8 8 15 10 15 2 0 4 -7 4 -15z m35 -34 c-6 -5 -25 10 -25 20 0 5 6 4
14 -3 8 -7 12 -15 11 -17z m5315 -21 c0 -5 0 -13 -1 -16 0 -4 4 -10 11 -14 8
-5 6 -11 -5 -20 -13 -11 -15 -10 -10 3 4 8 2 18 -4 22 -14 8 -14 35 -1 35 6 0
10 -4 10 -10z m4 -82 c-3 -4 -9 -8 -15 -8 -5 0 -9 4 -9 8 0 5 7 9 15 9 8 0 12
-4 9 -9z m53 -60 c-3 -8 -6 -5 -6 6 -1 11 2 17 5 13 3 -3 4 -12 1 -19z m-5383
-36 c3 -5 -1 -9 -9 -9 -8 0 -12 4 -9 9 3 4 7 8 9 8 2 0 6 -4 9 -8z m-17 -26
c3 -3 1 -6 -6 -6 -8 0 -11 -8 -8 -19 5 -20 -8 -49 -18 -40 -3 4 -8 17 -10 30
-3 13 -9 25 -15 27 -6 2 -8 7 -5 12 6 9 52 6 62 -4z m17 -45 c3 -5 -2 -15 -12
-22 -15 -12 -16 -12 -5 2 7 9 10 19 6 22 -3 4 -4 7 0 7 3 0 8 -4 11 -9z m5440
-41 c-5 -5 -10 3 -11 18 -1 22 0 24 9 8 6 -10 6 -22 2 -26z m-5435 -36 c-6 -7
-8 -18 -4 -23 4 -7 -1 -8 -11 -4 -11 4 -15 3 -10 -5 3 -6 2 -13 -3 -17 -6 -3
-8 4 -6 17 3 13 9 24 15 26 6 2 8 7 6 11 -3 4 1 8 9 8 11 0 12 -4 4 -13z
m5438 1 c0 -8 -4 -12 -9 -9 -5 3 -6 10 -3 15 9 13 12 11 12 -6z m16 -50 c-3
-9 -8 -14 -10 -11 -3 3 -2 9 2 15 9 16 15 13 8 -4z m-5469 -18 c-3 -8 -12 -14
-21 -14 -13 0 -13 2 3 14 10 7 19 13 21 13 1 0 0 -6 -3 -13z m5529 -38 c17
-23 16 -51 -1 -57 -6 -2 -10 10 -9 30 1 22 -3 32 -11 31 -6 -2 -12 2 -12 7 0
17 18 11 33 -11z m-13 -231 c0 -6 -3 -8 -7 -5 -3 4 -11 2 -18 -3 -8 -7 -12 -6
-12 3 0 7 9 14 19 14 10 1 18 -3 18 -9z m12 -36 c-10 -3 -10 -7 -1 -18 8 -10
8 -14 0 -14 -6 0 -11 5 -11 11 0 5 -4 8 -8 5 -5 -3 -9 1 -9 9 0 8 4 12 9 9 4
-3 8 0 8 6 0 6 5 8 12 4 9 -6 9 -9 0 -12z m-67 -82 c-3 -5 -12 -10 -18 -10 -7
0 -6 4 3 10 19 12 23 12 15 0z m-5 -24 c0 -2 -8 -10 -17 -17 -16 -13 -17 -12
-4 4 13 16 21 21 21 13z m54 -27 c-3 -5 -12 -9 -20 -9 -8 0 -12 5 -9 10 3 6 1
10 -4 10 -6 0 -11 -5 -11 -12 0 -6 -3 -8 -7 -4 -5 4 1 14 11 22 14 10 23 11
33 3 7 -6 10 -15 7 -20z m-5664 -59 c-14 -11 -28 -20 -32 -20 -3 0 -5 -11 -4
-24 2 -14 -1 -30 -6 -38 -7 -10 -9 -10 -7 2 3 31 -3 44 -10 20 -4 -15 -10 -20
-14 -14 -4 7 2 23 13 36 11 14 16 28 13 32 -3 3 -2 6 3 7 22 2 46 8 52 13 3 3
8 6 11 6 3 0 -5 -9 -19 -20z m5545 -30 c3 -5 1 -10 -4 -10 -6 0 -11 5 -11 10
0 6 2 10 4 10 3 0 8 -4 11 -10z m-5654 -114 c5 3 9 0 9 -5 0 -6 -3 -11 -7 -12
-5 0 -16 -2 -25 -4 -15 -3 -16 0 -6 18 7 14 13 17 16 9 2 -6 8 -10 13 -6z m34
4 c3 -5 1 -10 -4 -10 -6 0 -11 5 -11 10 0 6 2 10 4 10 3 0 8 -4 11 -10z m-41
-108 c3 -5 -1 -9 -9 -9 -8 0 -12 4 -9 9 3 4 7 8 9 8 2 0 6 -4 9 -8z m-34 -22
c0 -5 0 -12 0 -15 0 -3 -2 -4 -4 -2 -2 1 -13 -9 -25 -23 -16 -19 -19 -20 -14
-6 4 13 3 17 -4 13 -7 -4 -10 0 -9 10 2 10 8 18 14 18 6 0 14 3 18 8 11 10 24
9 24 -3z m5567 -10 c3 -11 9 -18 13 -15 5 3 11 1 14 -4 4 -5 2 -12 -4 -16 -6
-4 -7 -12 -3 -18 4 -7 0 -6 -10 2 -11 8 -22 10 -30 5 -7 -5 -6 -2 3 6 17 16
15 40 -4 52 -7 5 -7 8 2 8 8 0 16 -9 19 -20z m-17 -4 c0 -2 -8 -10 -17 -17
-16 -13 -17 -12 -4 4 13 16 21 21 21 13z m-5559 -79 c-10 -9 -11 -8 -5 6 3 10
9 15 12 12 3 -3 0 -11 -7 -18z m-38 -72 c-3 -9 -8 -14 -10 -11 -3 3 -2 9 2 15
9 16 15 13 8 -4z m5793 -62 c2 -11 -1 -12 -8 -5 -6 6 -18 8 -27 5 -12 -3 -11
-1 3 11 21 17 29 15 32 -11z m-5786 13 c0 -3 -4 -8 -10 -11 -5 -3 -10 -1 -10
4 0 6 5 11 10 11 6 0 10 -2 10 -4z m5825 -66 c25 -27 18 -35 -14 -16 -8 5 -16
3 -22 -5 -6 -9 -9 -10 -9 -2 0 7 8 16 18 22 15 8 14 11 -10 20 -32 12 -38 22
-9 14 10 -3 31 -18 46 -33z m-9 -42 c4 -7 4 -10 -1 -6 -4 4 -15 2 -24 -5 -14
-11 -14 -10 -2 6 16 20 18 21 27 5z m34 -33 c0 -5 -5 -3 -10 5 -5 8 -10 20
-10 25 0 6 5 3 10 -5 5 -8 10 -19 10 -25z m-5877 2 c7 3 8 2 4 -3 -5 -5 -14
-9 -20 -9 -7 -1 -11 -6 -9 -13 1 -7 -3 -12 -9 -12 -5 0 -7 -5 -4 -10 4 -6 10
-8 15 -5 4 3 11 -2 14 -10 4 -12 2 -13 -13 -6 -12 7 -22 6 -29 -1 -17 -17 -9
12 13 50 11 18 21 28 23 22 2 -5 9 -7 15 -3z m5910 -12 c0 -6 -7 -11 -16 -11
-16 -2 -16 -1 -1 3 14 4 15 7 3 15 -11 7 -11 9 -1 6 8 -2 14 -8 15 -13z m12
-115 c3 -5 1 -10 -4 -10 -6 0 -11 5 -11 10 0 6 2 10 4 10 3 0 8 -4 11 -10z m0
-29 c3 -5 2 -12 -3 -15 -5 -3 -9 1 -9 9 0 17 3 19 12 6z m68 -121 c3 -11 2
-18 -3 -15 -4 3 -10 14 -13 25 -3 11 -2 18 3 15 4 -3 10 -14 13 -25z m-5993
10 c0 -5 -5 -9 -11 -7 -6 1 -14 -4 -17 -12 -3 -9 0 -11 9 -6 8 5 6 0 -3 -12
-10 -11 -18 -22 -18 -26 0 -3 8 -4 18 -1 14 5 15 4 2 -5 -14 -10 -7 -16 14
-12 5 1 4 -4 -2 -12 -7 -8 -8 -18 -4 -23 4 -4 -1 -2 -11 5 -9 8 -15 16 -12 19
3 3 0 12 -7 19 -16 20 -18 72 -2 66 6 -2 15 0 19 6 8 14 25 14 25 1z m15 -40
c-3 -5 -12 -10 -18 -10 -7 0 -6 4 3 10 19 12 23 12 15 0z m8 -85 c4 -8 3 -16
-1 -19 -4 -3 -9 4 -9 15 -2 23 3 25 10 4z m-16 -76 c-4 -16 -2 -19 11 -14 13
5 14 3 5 -6 -16 -16 -32 -3 -26 21 3 11 8 20 10 20 3 0 3 -9 0 -21z m6029 -34
c-1 -14 -6 -27 -9 -30 -4 -3 -5 -2 -2 2 3 3 -3 12 -13 20 -13 10 -14 13 -2 11
8 -2 14 3 13 10 -2 6 1 12 6 12 5 0 8 -11 7 -25z m-5971 -85 c3 -5 2 -10 -4
-10 -5 0 -13 5 -16 10 -3 6 -2 10 4 10 5 0 13 -4 16 -10z m121 -246 c1 -9 -1
-13 -4 -9 -4 4 -7 10 -7 13 0 4 -4 14 -9 22 -7 12 -6 13 4 3 8 -7 15 -20 16
-29z m5699 -123 c3 -5 2 -12 -3 -15 -5 -3 -9 1 -9 9 0 17 3 19 12 6z m35 -11
c0 -5 -2 -10 -4 -10 -3 0 -8 5 -11 10 -3 6 -1 10 4 10 6 0 11 -4 11 -10z
m-5575 -68 c-3 -3 -11 0 -18 7 -9 10 -8 11 6 5 10 -3 15 -9 12 -12z m5498 -49
c-23 -15 -33 -40 -11 -27 7 5 8 3 3 -5 -5 -9 -11 -9 -17 -3 -7 7 -5 17 4 31 8
12 18 18 21 14 4 -3 7 -1 7 5 0 7 -4 12 -10 12 -5 0 -10 5 -10 12 0 7 7 5 18
-6 16 -17 16 -18 -5 -33z m-36 5 c-3 -8 -6 -5 -6 6 -1 11 2 17 5 13 3 -3 4
-12 1 -19z m-5383 -33 c3 -8 1 -15 -4 -15 -6 0 -10 7 -10 15 0 8 2 15 4 15 2
0 6 -7 10 -15z m43 -21 c-3 -3 -12 -4 -19 -1 -8 3 -5 6 6 6 11 1 17 -2 13 -5z
m10 -30 c-8 -8 15 -32 28 -29 5 1 7 0 2 -2 -4 -3 -4 -10 0 -16 4 -7 -7 -1 -23
13 -20 16 -27 28 -20 32 13 9 22 10 13 2z m38 -4 c3 -6 -1 -7 -9 -4 -18 7 -21
14 -7 14 6 0 13 -4 16 -10z m5245 -15 c0 -7 -30 -13 -34 -7 -3 4 4 9 15 9 10
1 19 0 19 -2z m-5185 -45 c-3 -5 -1 -10 4 -10 6 0 11 6 11 13 0 8 3 7 10 -3 5
-9 5 -19 0 -26 -6 -6 -7 -14 -3 -17 3 -4 12 1 20 11 12 16 13 16 7 -3 -6 -20
-5 -20 10 -1 14 17 16 18 16 3 0 -9 -3 -17 -7 -18 -5 0 -16 -2 -25 -4 -10 -2
-35 11 -55 27 -21 17 -30 28 -20 25 9 -4 17 -2 17 3 0 6 5 10 11 10 5 0 7 -4
4 -10z m5123 -57 c-34 -36 -58 -48 -58 -27 0 11 5 14 16 10 13 -5 14 -4 6 7
-15 18 -3 30 15 15 11 -9 13 -7 9 15 -4 25 -3 26 16 16 20 -11 20 -11 -4 -36z
m-5008 -3 c0 -5 -2 -10 -4 -10 -3 0 -8 5 -11 10 -3 6 -1 10 4 10 6 0 11 -4 11
-10z m4935 -10 c-3 -5 -1 -19 5 -30 14 -26 -11 -28 -31 -3 -8 9 -9 14 -3 10 7
-4 14 2 17 13 3 11 8 20 12 20 3 0 3 -4 0 -10z m-110 -50 c3 -6 -1 -7 -9 -4
-18 7 -21 14 -7 14 6 0 13 -4 16 -10z m-65 -60 c0 -5 -2 -10 -4 -10 -3 0 -8 5
-11 10 -3 6 -1 10 4 10 6 0 11 -4 11 -10z m-105 -40 c-3 -5 -12 -10 -18 -10
-7 0 -6 4 3 10 19 12 23 12 15 0z m-4615 -19 c0 -6 -4 -12 -8 -15 -5 -3 -9 1
-9 9 0 8 4 15 9 15 4 0 8 -4 8 -9z m4495 -21 c3 -5 1 -10 -4 -10 -6 0 -11 5
-11 10 0 6 2 10 4 10 3 0 8 -4 11 -10z m-70 -20 c10 -11 16 -20 13 -20 -3 0
-13 9 -23 20 -10 11 -16 20 -13 20 3 0 13 -9 23 -20z m25 -43 c0 -6 -3 -7 -7
-4 -8 9 -44 -23 -38 -34 3 -4 1 -10 -5 -14 -5 -3 -10 1 -10 9 0 8 5 18 12 22
7 5 5 11 -7 21 -11 7 -14 13 -9 13 6 0 16 -6 23 -12 11 -11 13 -10 8 3 -4 13
-1 15 14 12 10 -3 19 -10 19 -16z m-66 -22 c-4 -8 -11 -12 -16 -9 -6 4 -5 10
3 15 19 12 19 11 13 -6z m-4359 -14 c-3 -3 -11 -6 -18 -7 -7 -1 -21 -5 -32 -9
-15 -5 -14 -3 3 8 23 13 58 20 47 8z m12 -106 c0 -8 -4 -12 -9 -9 -4 3 -8 9
-8 15 0 5 4 9 8 9 5 0 9 -7 9 -15z m18 -35 c3 -5 1 -10 -4 -10 -6 0 -11 5 -11
10 0 6 2 10 4 10 3 0 8 -4 11 -10z m4252 -6 c-3 -3 -12 -4 -19 -1 -8 3 -5 6 6
6 11 1 17 -2 13 -5z m-4230 -39 c0 -8 -4 -12 -9 -9 -5 3 -6 10 -3 15 9 13 12
11 12 -6z m4263 6 c0 -6 -4 -13 -10 -16 -5 -3 -10 -1 -10 5 0 6 -5 8 -12 4 -7
-4 -8 -3 -4 4 9 14 36 16 36 3z m-4243 -86 c0 -8 -4 -12 -9 -9 -4 3 -8 0 -8
-5 0 -6 5 -11 10 -11 6 0 10 -5 10 -10 0 -6 -11 -3 -25 6 -14 9 -22 20 -19 25
3 5 9 7 14 4 5 -3 11 -1 15 5 9 14 12 13 12 -5z m20 -27 c-3 -8 -6 -5 -6 6 -1
11 2 17 5 13 3 -3 4 -12 1 -19z m4183 11 c0 -7 -25 -20 -48 -25 -8 -1 -11 1
-7 4 4 4 12 7 18 7 7 1 11 6 10 11 -1 6 5 11 13 11 8 0 14 -4 14 -8z m-4148
-36 c-3 -16 -7 -22 -10 -15 -4 13 4 42 11 42 2 0 2 -12 -1 -27z m63 -71 c-3
-3 -11 0 -18 7 -9 10 -8 11 6 5 10 -3 15 -9 12 -12z m3997 -34 c-7 -7 -12 -8
-12 -2 0 14 12 26 19 19 2 -3 -1 -11 -7 -17z m-3946 -24 c-4 -16 -3 -23 3 -19
7 3 8 0 5 -10 -6 -14 -8 -14 -19 2 -8 10 -9 20 -4 21 5 2 9 10 9 18 0 8 3 14
6 14 3 0 3 -12 0 -26z m28 0 c3 -8 2 -12 -4 -9 -6 3 -10 10 -10 16 0 14 7 11
14 -7z m3842 -63 c-4 -5 0 -11 6 -14 7 -3 3 -4 -9 -4 -17 1 -19 4 -11 14 12
15 22 18 14 4z m-3568 -47 c-13 -13 -20 -14 -34 -5 -17 11 -17 11 3 6 12 -3
24 -1 28 5 3 5 9 10 13 10 3 0 -1 -7 -10 -16z m170 -30 c8 -2 17 -6 20 -10 4
-4 0 -5 -9 -1 -9 3 -22 1 -28 -4 -6 -5 -9 -6 -6 -3 3 4 -1 14 -8 22 -10 13 -9
14 3 7 8 -5 21 -10 28 -11z m95 4 c-2 -5 -13 -8 -23 -8 -10 0 -21 3 -23 8 -3
4 8 7 23 7 15 0 26 -3 23 -7z m27 -18 c0 -5 -2 -10 -4 -10 -3 0 -8 5 -11 10
-3 6 -1 10 4 10 6 0 11 -4 11 -10z m3265 -29 c-10 -9 -35 -9 -35 0 0 5 5 9 11
9 5 0 7 5 4 10 -4 6 -11 7 -17 4 -7 -5 -8 -2 -4 5 6 9 13 8 27 -5 11 -9 17
-20 14 -23z m-94 -8 c-12 -20 -14 -14 -5 12 4 9 9 14 11 11 3 -2 0 -13 -6 -23z
m38 -17 c11 -14 6 -15 -27 -7 -4 1 8 21 12 21 2 0 9 -6 15 -14z m-74 -14 c-3
-3 -11 0 -18 7 -9 10 -8 11 6 5 10 -3 15 -9 12 -12z m-1237 -17 c-3 -3 -9 2
-12 12 -6 14 -5 15 5 6 7 -7 10 -15 7 -18z m-1680 3 c-2 -7 3 -12 10 -10 6 1
12 -2 12 -8 0 -5 -6 -10 -12 -10 -9 0 -8 -4 2 -11 10 -7 11 -9 2 -7 -8 2 -13
7 -12 12 1 5 -4 12 -10 16 -7 4 -9 13 -6 19 9 15 17 14 14 -1z m1582 -12 c0
-2 -7 -7 -16 -10 -8 -3 -12 -2 -9 4 6 10 25 14 25 6z m1290 -6 c-8 -5 -19 -10
-25 -10 -5 0 -3 5 5 10 8 5 20 10 25 10 6 0 3 -5 -5 -10z m-1070 -15 c7 -9 8
-15 2 -15 -5 0 -12 7 -16 15 -3 8 -4 15 -2 15 2 0 9 -7 16 -15z m75 -45 c3 -5
1 -10 -4 -10 -6 0 -11 5 -11 10 0 6 2 10 4 10 3 0 8 -4 11 -10z m-1544 -47
c13 -16 12 -17 -3 -4 -17 13 -22 21 -14 21 2 0 10 -8 17 -17z m1129 5 c0 -4
-4 -8 -9 -8 -6 0 -12 4 -15 8 -3 5 1 9 9 9 8 0 15 -4 15 -9z m2 -22 c9 5 8 0
-3 -16 -8 -13 -24 -24 -34 -26 -10 -1 -21 -8 -25 -14 -4 -7 -7 -1 -7 14 0 28
12 43 22 26 3 -5 14 -10 23 -10 13 0 9 7 -13 26 -28 23 -28 24 -3 9 16 -10 33
-13 40 -9z m-1167 4 c3 -5 1 -10 -4 -10 -6 0 -11 5 -11 10 0 6 2 10 4 10 3 0
8 -4 11 -10z m2365 0 c0 -5 -4 -10 -10 -10 -5 0 -10 5 -10 10 0 6 5 10 10 10
6 0 10 -4 10 -10z m-2408 -19 c7 11 9 11 6 1 -5 -17 -23 -17 -24 0 -1 9 1 8 4
-1 3 -12 5 -12 14 0z m1125 4 c0 -8 -4 -12 -9 -9 -5 3 -6 10 -3 15 9 13 12 11
12 -6z m1247 -7 c-4 -6 1 -8 14 -4 26 8 37 -8 17 -24 -12 -10 -15 -10 -15 0 0
7 -7 10 -17 6 -10 -4 -14 -4 -11 0 4 4 3 15 -3 25 -7 15 -6 17 6 13 8 -3 12
-11 9 -16z m-274 -23 c0 -2 -6 -5 -13 -8 -8 -3 -14 1 -14 8 0 7 6 11 14 8 7
-3 13 -6 13 -8z m138 -5 c-7 -10 -14 -17 -17 -15 -4 4 18 35 25 35 2 0 -1 -9
-8 -20z m-1231 -15 c0 -8 -4 -12 -9 -9 -5 3 -6 10 -3 15 9 13 12 11 12 -6z
m-702 -15 c3 -5 1 -10 -4 -10 -6 0 -11 5 -11 10 0 6 2 10 4 10 3 0 8 -4 11
-10z m61 -15 c1 -8 -2 -15 -6 -15 -5 0 -8 9 -7 20 1 21 10 18 13 -5z m38 17
c3 -5 -1 -9 -9 -9 -8 0 -12 4 -9 9 3 4 7 8 9 8 2 0 6 -4 9 -8z m-81 -27 c-3
-9 -8 -14 -10 -11 -3 3 -2 9 2 15 9 16 15 13 8 -4z m30 -35 c4 -17 2 -18 -14
-10 -10 6 -16 17 -13 25 8 19 20 12 27 -15z m57 26 c0 -3 -4 -8 -10 -11 -5 -3
-10 -1 -10 4 0 6 5 11 10 11 6 0 10 -2 10 -4z m415 -6 c3 -5 1 -10 -4 -10 -6
0 -11 5 -11 10 0 6 2 10 4 10 3 0 8 -4 11 -10z m-42 -27 c-5 -15 -3 -16 8 -5
7 6 17 12 23 12 5 0 1 -6 -9 -14 -11 -8 -23 -12 -27 -10 -11 7 -10 34 2 34 5
0 7 -8 3 -17z"/>
<path d="M3420 6696 c0 -2 7 -9 15 -16 9 -7 15 -8 15 -2 0 5 -7 12 -15 16 -8
3 -15 4 -15 2z"/>
<path d="M922 5674 c-7 -8 -8 -14 -3 -14 10 0 25 19 20 25 -2 1 -10 -3 -17
-11z"/>
<path d="M900 5641 c0 -6 4 -12 8 -15 5 -3 9 1 9 9 0 8 -4 15 -9 15 -4 0 -8
-4 -8 -9z"/>
<path d="M545 4090 c-4 -6 -11 -7 -17 -4 -7 4 -8 2 -4 -5 6 -8 12 -9 20 -2 7
6 17 7 21 3 5 -4 5 -1 1 6 -9 15 -13 15 -21 2z"/>
<path d="M1070 2496 c7 -7 13 -7 20 0 6 6 3 10 -10 10 -13 0 -16 -4 -10 -10z"/>
<path d="M3710 1310 c0 -5 5 -10 11 -10 5 0 7 5 4 10 -3 6 -8 10 -11 10 -2 0
-4 -4 -4 -10z"/>
<path d="M3010 6740 c0 -5 -7 -10 -15 -10 -8 0 -15 -6 -15 -12 0 -9 -4 -8 -10
2 -5 8 -10 11 -10 5 0 -5 -5 -3 -10 5 -7 10 -10 11 -10 2 0 -7 7 -15 15 -18 8
-4 12 -11 8 -18 -4 -7 -1 -7 9 1 8 7 17 10 20 8 3 -3 13 6 22 20 9 14 12 25 6
25 -5 0 -10 -4 -10 -10z"/>
<path d="M3322 6731 c7 -9 13 -18 15 -20 1 -2 1 5 0 16 0 11 -7 20 -14 20 -10
0 -10 -4 -1 -16z"/>
<path d="M3456 6718 c3 -4 12 -8 20 -8 8 0 14 4 14 8 0 4 -9 8 -19 8 -11 0
-17 -4 -15 -8z"/>
<path d="M3370 6690 c0 -5 5 -10 11 -10 5 0 7 5 4 10 -3 6 -8 10 -11 10 -2 0
-4 -4 -4 -10z"/>
<path d="M3630 6649 c0 -5 5 -7 10 -4 6 3 10 8 10 11 0 2 -4 4 -10 4 -5 0 -10
-5 -10 -11z"/>
<path d="M3651 6633 c-1 -7 -4 -12 -8 -12 -25 4 -36 -2 -25 -13 8 -8 15 -8 25
1 11 9 17 8 26 -2 6 -8 8 -17 4 -20 -3 -4 0 -7 7 -7 7 0 22 -7 32 -17 11 -9
18 -11 18 -5 0 7 5 12 11 12 5 0 8 -4 5 -9 -3 -5 0 -14 7 -19 10 -8 16 -5 26
11 11 18 11 20 0 10 -19 -18 -34 -16 -19 3 8 8 9 14 4 13 -19 -6 -54 13 -55
29 0 14 -2 14 -8 -2 -9 -22 -20 -10 -16 17 3 14 0 16 -10 7 -10 -8 -14 -7 -18
2 -4 10 -6 10 -6 1z m74 -61 c-3 -3 -11 0 -18 7 -9 10 -8 11 6 5 10 -3 15 -9
12 -12z"/>
<path d="M2615 6620 c-3 -5 -1 -10 4 -10 6 0 11 5 11 10 0 6 -2 10 -4 10 -3 0
-8 -4 -11 -10z"/>
<path d="M3736 6607 c3 -10 9 -15 12 -12 3 3 0 11 -7 18 -10 9 -11 8 -5 -6z"/>
<path d="M4473 6605 c0 -8 4 -12 9 -9 5 3 6 10 3 15 -9 13 -12 11 -12 -6z"/>
<path d="M4370 6600 c0 -5 5 -10 11 -10 5 0 7 5 4 10 -3 6 -8 10 -11 10 -2 0
-4 -4 -4 -10z"/>
<path d="M4520 6600 c0 -5 5 -10 11 -10 5 0 7 5 4 10 -3 6 -8 10 -11 10 -2 0
-4 -4 -4 -10z"/>
<path d="M4577 6597 c-3 -7 3 -13 14 -13 13 0 15 3 7 13 -6 7 -12 13 -13 13
-2 0 -5 -6 -8 -13z"/>
<path d="M2600 6590 c-9 -6 -10 -10 -3 -10 6 0 15 5 18 10 8 12 4 12 -15 0z"/>
<path d="M4482 6570 c-7 -11 -9 -20 -5 -21 47 -6 66 -4 70 8 4 11 8 10 19 -4
13 -16 13 -15 2 10 l-12 28 -13 -23 c-11 -21 -18 -18 -13 7 1 5 -8 1 -19 -9
-22 -20 -30 -9 -9 12 7 7 8 12 2 12 -5 0 -15 -9 -22 -20z"/>
<path d="M3786 6541 c-3 -4 0 -16 7 -25 12 -16 14 -16 26 -2 9 11 10 16 2 16
-6 0 -11 -6 -11 -12 0 -9 -3 -8 -10 2 -6 9 -5 17 3 22 9 6 9 8 0 8 -6 0 -14
-4 -17 -9z"/>
<path d="M4193 6535 c1 -15 8 -21 29 -22 15 0 25 4 22 9 -3 5 -12 7 -20 4 -7
-3 -18 3 -23 12 -9 15 -10 15 -8 -3z"/>
<path d="M4093 6525 c-3 -9 -3 -18 -1 -21 3 -3 8 4 11 16 6 23 -1 27 -10 5z"/>
<path d="M3894 6502 c4 -7 1 -12 -8 -12 -8 0 -17 -4 -20 -9 -4 -5 3 -7 14 -4
26 7 34 19 19 29 -8 4 -9 3 -5 -4z"/>
<path d="M4940 6501 c0 -14 24 -29 43 -26 9 2 15 -1 12 -5 -3 -5 -14 -7 -25
-5 -11 2 -22 0 -25 -6 -6 -9 10 -14 30 -9 10 3 47 7 75 9 13 1 13 2 0 11 -9 6
-17 5 -22 -3 -5 -8 -9 -6 -14 6 -3 10 -11 17 -18 16 -6 -1 -20 -1 -31 0 -17 1
-18 3 -5 11 13 8 12 10 -2 10 -10 0 -18 -4 -18 -9z"/>
<path d="M5015 6500 c3 -5 8 -10 11 -10 2 0 4 5 4 10 0 6 -5 10 -11 10 -5 0
-7 -4 -4 -10z"/>
<path d="M3915 6480 c-3 -5 -1 -10 4 -10 6 0 11 5 11 10 0 6 -2 10 -4 10 -3 0
-8 -4 -11 -10z"/>
<path d="M3955 6479 c-2 -3 9 -5 26 -5 16 0 29 3 29 7 0 8 -50 7 -55 -2z"/>
<path d="M5075 6471 c-3 -5 -2 -12 3 -15 5 -3 9 1 9 9 0 17 -3 19 -12 6z"/>
<path d="M2456 6458 c3 -4 11 -5 19 -1 21 7 19 12 -4 10 -11 0 -18 -5 -15 -9z"/>
<path d="M3965 6450 c-4 -6 -11 -7 -17 -4 -6 4 -5 -2 2 -15 6 -12 15 -19 21
-16 5 4 6 11 3 17 -4 6 0 14 7 19 9 6 10 9 2 9 -6 0 -15 -5 -18 -10z"/>
<path d="M1890 6399 c0 -5 5 -7 10 -4 6 3 10 8 10 11 0 2 -4 4 -10 4 -5 0 -10
-5 -10 -11z"/>
<path d="M1990 6380 c-9 -6 -10 -10 -3 -10 6 0 15 5 18 10 8 12 4 12 -15 0z"/>
<path d="M2064 6376 c11 -9 17 -19 13 -22 -4 -4 -14 -1 -24 7 -9 8 -14 9 -10
3 4 -7 0 -14 -8 -17 -9 -4 -12 -1 -8 9 3 7 -1 14 -8 14 -7 0 -9 -3 -6 -7 4 -3
-1 -12 -11 -20 -9 -8 -11 -12 -4 -8 6 3 12 1 12 -6 0 -8 5 -7 17 2 13 11 17
12 21 1 3 -10 8 -9 23 4 25 22 24 31 -3 44 -22 11 -22 10 -4 -4z"/>
<path d="M1773 6355 c0 -8 4 -12 9 -9 5 3 6 10 3 15 -9 13 -12 11 -12 -6z"/>
<path d="M2103 6354 c0 -7 6 -10 14 -7 7 3 13 8 13 12 0 4 -6 8 -13 8 -8 0
-14 -6 -14 -13z"/>
<path d="M2176 6358 c3 -4 -4 -8 -15 -8 -12 0 -21 -5 -21 -11 0 -5 5 -7 10 -4
6 4 18 1 27 -7 13 -10 15 -10 9 0 -4 7 -3 19 3 26 8 9 7 13 -4 13 -8 0 -12 -4
-9 -9z"/>
<path d="M2275 6360 c-3 -6 0 -13 9 -16 8 -3 14 -11 12 -17 -1 -7 -1 -9 1 -5
2 4 10 5 18 2 14 -6 41 33 31 44 -3 3 -6 0 -6 -6 0 -7 -5 -12 -11 -12 -5 0 -7
5 -4 10 3 6 1 10 -4 10 -14 0 -14 -13 1 -28 16 -16 -3 -15 -24 2 -10 7 -15 16
-11 19 3 4 4 7 0 7 -3 0 -9 -5 -12 -10z"/>
<path d="M5221 6352 c-6 -11 -6 -24 0 -33 7 -12 9 -12 9 1 0 13 1 13 10 0 6
-9 10 -10 10 -3 0 6 -5 15 -11 18 -6 4 -8 13 -5 21 8 20 -2 17 -13 -4z"/>
<path d="M5253 6355 c0 -8 4 -12 9 -9 5 3 6 10 3 15 -9 13 -12 11 -12 -6z"/>
<path d="M1804 6345 c3 -10 -1 -15 -12 -16 -22 -2 -24 -2 -47 6 -11 3 -8 -1 8
-10 31 -18 70 -5 61 20 -4 8 -8 15 -11 15 -3 0 -3 -7 1 -15z"/>
<path d="M1931 6351 c-8 -5 -9 -11 -3 -15 5 -3 12 1 16 9 6 17 6 18 -13 6z"/>
<path d="M5260 6326 c0 -2 7 -7 16 -10 8 -3 12 -2 9 4 -6 10 -25 14 -25 6z"/>
<path d="M5330 6300 c0 -5 5 -10 11 -10 5 0 7 5 4 10 -3 6 -8 10 -11 10 -2 0
-4 -4 -4 -10z"/>
<path d="M1547 6276 c-4 -10 -1 -13 8 -9 8 3 12 9 9 14 -7 12 -11 11 -17 -5z"/>
<path d="M5321 6253 c7 -10 14 -19 15 -21 1 -2 4 4 8 13 3 9 2 13 -4 10 -6 -3
-10 -1 -10 4 0 6 -5 11 -11 11 -8 0 -7 -6 2 -17z"/>
<path d="M5350 6231 c-13 -25 15 -58 34 -41 7 5 16 7 19 3 4 -3 7 -1 7 5 0 16
-13 15 -29 0 -11 -11 -12 -8 -7 12 3 14 3 19 0 13 -3 -7 -10 -13 -15 -13 -6 0
-5 8 1 20 6 11 8 20 6 20 -3 0 -10 -9 -16 -19z"/>
<path d="M5386 6238 c3 -5 10 -6 15 -3 13 9 11 12 -6 12 -8 0 -12 -4 -9 -9z"/>
<path d="M1393 6211 c1 -11 5 -21 10 -21 4 0 5 -5 2 -10 -4 -6 -11 -8 -16 -5
-5 4 -9 -1 -9 -10 0 -10 -5 -13 -12 -9 -7 5 -8 3 -3 -5 5 -9 13 -7 31 10 19
18 21 25 12 43 -15 30 -17 31 -15 7z"/>
<path d="M5429 6203 c-13 -16 -12 -17 4 -4 16 13 21 21 13 21 -2 0 -10 -8 -17
-17z"/>
<path d="M1355 6191 c-3 -5 0 -13 6 -17 7 -4 9 -3 5 4 -3 5 0 13 6 15 9 4 10
6 1 6 -6 1 -14 -3 -18 -8z"/>
<path d="M5470 6099 c0 -5 5 -7 10 -4 6 3 10 8 10 11 0 2 -4 4 -10 4 -5 0 -10
-5 -10 -11z"/>
<path d="M5485 6079 c-4 -6 -5 -12 -2 -15 2 -3 7 2 10 11 7 17 1 20 -8 4z"/>
<path d="M1064 5958 c-11 -17 26 -40 43 -26 11 9 12 13 1 19 -7 5 -14 4 -16
-1 -2 -6 -8 -10 -14 -10 -6 0 -8 7 -4 15 6 18 0 20 -10 3z"/>
<path d="M986 5878 c3 -5 10 -6 15 -3 13 9 11 12 -6 12 -8 0 -12 -4 -9 -9z"/>
<path d="M5631 5756 c-8 -10 -9 -16 -1 -21 6 -3 7 -12 4 -18 -4 -8 -2 -7 7 1
12 11 12 14 -1 22 -14 9 -7 14 13 11 5 -1 6 3 2 9 -8 13 -10 13 -24 -4z"/>
<path d="M914 5732 c3 -5 0 -13 -6 -15 -9 -4 -10 -6 -1 -6 17 -1 25 16 12 25
-7 4 -9 3 -5 -4z"/>
<path d="M5686 5658 c3 -5 10 -6 15 -3 13 9 11 12 -6 12 -8 0 -12 -4 -9 -9z"/>
<path d="M869 5592 c6 -11 7 -22 4 -26 -3 -3 -4 -6 -1 -6 3 0 11 6 17 14 10
12 8 17 -9 26 -20 10 -21 10 -11 -8z"/>
<path d="M5835 5560 c-3 -5 -1 -10 4 -10 6 0 11 5 11 10 0 6 -2 10 -4 10 -3 0
-8 -4 -11 -10z"/>
<path d="M5906 5508 c3 -4 9 -8 15 -8 5 0 9 4 9 8 0 5 -7 9 -15 9 -8 0 -12 -4
-9 -9z"/>
<path d="M806 5498 c3 -5 10 -6 15 -3 13 9 11 12 -6 12 -8 0 -12 -4 -9 -9z"/>
<path d="M6060 5446 c0 -2 8 -10 18 -17 15 -13 16 -12 3 4 -13 16 -21 21 -21
13z"/>
<path d="M6150 5349 c0 -5 5 -7 10 -4 6 3 10 8 10 11 0 2 -4 4 -10 4 -5 0 -10
-5 -10 -11z"/>
<path d="M801 5336 c-9 -10 -9 -16 -1 -21 6 -4 14 -4 17 -1 4 3 1 6 -6 6 -7 0
-9 5 -6 10 4 6 11 7 17 4 7 -4 8 -2 4 4 -9 15 -11 15 -25 -2z"/>
<path d="M6191 5314 c0 -11 3 -14 6 -6 3 7 2 16 -1 19 -3 4 -6 -2 -5 -13z"/>
<path d="M840 5270 c0 -5 -7 -6 -17 -3 -10 4 -14 2 -10 -4 8 -13 -27 -46 -38
-36 -4 5 -5 2 -1 -5 6 -11 13 -9 32 9 13 12 27 19 31 16 3 -4 -1 -13 -9 -20
-14 -11 -14 -14 5 -32 11 -11 17 -14 13 -7 -4 6 -4 17 0 24 11 17 12 68 2 68
-4 0 -8 -4 -8 -10z"/>
<path d="M6254 5246 c1 -8 5 -18 8 -22 4 -3 5 1 4 10 -1 8 -5 18 -8 22 -4 3
-5 -1 -4 -10z"/>
<path d="M6309 5141 c-7 -33 -5 -49 7 -44 8 3 14 9 14 15 0 5 -4 6 -10 3 -17
-10 -11 7 6 20 15 11 15 12 0 12 -9 0 -17 -3 -17 -6z"/>
<path d="M826 5123 c-3 -7 -13 -13 -22 -13 -25 0 -9 -12 21 -15 14 -2 28 2 32
7 4 7 -2 9 -18 5 l-24 -6 24 18 c16 13 19 18 7 18 -8 0 -17 -6 -20 -14z"/>
<path d="M770 5076 c7 -7 13 -7 20 0 6 6 3 10 -10 10 -13 0 -16 -4 -10 -10z"/>
<path d="M6346 5021 c-3 -5 1 -14 9 -21 12 -10 13 -16 3 -27 -10 -13 -8 -19
11 -34 25 -21 47 -24 55 -10 4 5 -4 7 -15 4 -16 -5 -20 -2 -17 8 3 8 12 13 19
11 8 -2 10 0 6 5 -5 4 -13 8 -18 8 -5 0 -9 5 -10 10 0 6 -7 13 -14 18 -8 4
-12 14 -9 22 7 16 -11 21 -20 6z m35 -64 c-1 -12 -15 -9 -19 4 -3 6 1 10 8 8
6 -3 11 -8 11 -12z"/>
<path d="M813 4955 c0 -8 4 -12 9 -9 4 3 8 9 8 15 0 5 -4 9 -8 9 -5 0 -9 -7
-9 -15z"/>
<path d="M836 4954 c-8 -20 -8 -24 2 -24 4 0 8 9 9 20 2 24 -3 26 -11 4z"/>
<path d="M790 4936 c0 -2 7 -9 15 -16 9 -7 15 -8 15 -2 0 5 -7 12 -15 16 -8 3
-15 4 -15 2z"/>
<path d="M821 4884 c0 -11 3 -14 6 -6 3 7 2 16 -1 19 -3 4 -6 -2 -5 -13z"/>
<path d="M795 4881 c-3 -5 -2 -12 3 -15 5 -3 9 1 9 9 0 17 -3 19 -12 6z"/>
<path d="M850 4795 c0 -6 5 -16 12 -23 13 -13 -2 -17 -18 -4 -5 4 -4 0 3 -8
20 -22 37 1 18 26 -8 10 -15 14 -15 9z"/>
<path d="M838 4733 c7 -3 16 -2 19 1 4 3 -2 6 -13 5 -11 0 -14 -3 -6 -6z"/>
<path d="M6435 4680 c3 -5 8 -10 11 -10 2 0 4 5 4 10 0 6 -5 10 -11 10 -5 0
-7 -4 -4 -10z"/>
<path d="M6435 4649 c-4 -6 -5 -12 -2 -15 2 -3 7 2 10 11 7 17 1 20 -8 4z"/>
<path d="M870 4570 c0 -5 5 -10 10 -10 6 0 10 5 10 10 0 6 -4 10 -10 10 -5 0
-10 -4 -10 -10z"/>
<path d="M790 4530 c6 -11 15 -18 21 -15 13 9 11 13 -12 25 -19 11 -20 10 -9
-10z"/>
<path d="M770 4510 c0 -5 5 -10 11 -10 5 0 7 5 4 10 -3 6 -8 10 -11 10 -2 0
-4 -4 -4 -10z"/>
<path d="M715 4419 c-11 -17 1 -21 15 -4 8 9 8 15 2 15 -6 0 -14 -5 -17 -11z"/>
<path d="M6378 4398 c-9 -5 -6 -7 9 -5 12 2 25 6 28 8 8 9 -23 6 -37 -3z"/>
<path d="M6336 4392 c-3 -6 1 -15 8 -21 8 -7 17 -8 20 -3 3 6 -1 15 -8 21 -8
7 -17 8 -20 3z"/>
<path d="M586 4338 c3 -5 10 -6 15 -3 13 9 11 12 -6 12 -8 0 -12 -4 -9 -9z"/>
<path d="M590 4283 c0 -6 8 -17 18 -24 16 -13 16 -13 2 6 -8 11 -16 22 -17 24
-2 2 -3 0 -3 -6z"/>
<path d="M6266 4272 c-2 -4 0 -14 6 -22 8 -12 9 -12 4 3 -3 9 -1 17 4 17 9 0
14 -15 11 -33 -1 -5 3 -6 9 -2 7 4 7 12 0 26 -11 20 -25 25 -34 11z"/>
<path d="M6194 4108 l-19 -23 23 19 c12 11 22 21 22 23 0 8 -8 2 -26 -19z"/>
<path d="M475 4081 c-3 -5 -2 -12 3 -15 5 -3 9 1 9 9 0 17 -3 19 -12 6z"/>
<path d="M6235 4029 c-4 -6 -5 -12 -2 -15 2 -3 7 2 10 11 7 17 1 20 -8 4z"/>
<path d="M6200 3999 c0 -5 5 -7 10 -4 6 3 10 8 10 11 0 2 -4 4 -10 4 -5 0 -10
-5 -10 -11z"/>
<path d="M455 3980 c-3 -5 -1 -10 4 -10 6 0 11 5 11 10 0 6 -2 10 -4 10 -3 0
-8 -4 -11 -10z"/>
<path d="M465 3957 c-17 -13 -16 -14 5 -12 13 1 26 7 28 13 5 16 -10 15 -33
-1z"/>
<path d="M6271 3936 c-7 -8 -8 -17 -3 -20 6 -3 15 1 21 8 7 8 8 17 3 20 -6 3
-15 -1 -21 -8z"/>
<path d="M460 3919 c0 -5 5 -7 10 -4 6 3 10 8 10 11 0 2 -4 4 -10 4 -5 0 -10
-5 -10 -11z"/>
<path d="M440 3860 c-12 -8 -12 -10 -1 -10 8 0 11 -7 8 -19 -3 -14 -1 -18 10
-14 7 3 11 8 9 11 -3 3 -1 11 6 19 9 11 7 12 -7 7 -13 -5 -16 -4 -11 4 9 14 6
15 -14 2z"/>
<path d="M415 3809 c-4 -6 -5 -12 -2 -15 2 -3 7 2 10 11 7 17 1 20 -8 4z"/>
<path d="M6420 3766 c0 -2 8 -10 18 -17 15 -13 16 -12 3 4 -13 16 -21 21 -21
13z"/>
<path d="M415 3750 c-3 -6 1 -7 9 -4 18 7 21 14 7 14 -6 0 -13 -4 -16 -10z"/>
<path d="M405 3720 c-3 -5 -1 -10 4 -10 6 0 11 5 11 10 0 6 -2 10 -4 10 -3 0
-8 -4 -11 -10z"/>
<path d="M401 3676 c-9 -10 -8 -15 2 -19 8 -3 13 3 13 14 0 23 0 23 -15 5z"/>
<path d="M6470 3670 c0 -5 5 -10 11 -10 5 0 7 5 4 10 -3 6 -8 10 -11 10 -2 0
-4 -4 -4 -10z"/>
<path d="M424 3558 c-11 -12 -13 -18 -6 -14 6 4 12 2 12 -3 0 -6 5 -11 12 -11
6 0 8 3 5 7 -4 3 -2 12 4 19 18 22 -8 24 -27 2z"/>
<path d="M6523 3454 c0 -7 4 -11 8 -8 4 2 10 -4 12 -13 4 -14 5 -14 6 3 0 12
-5 24 -12 27 -8 3 -14 -1 -14 -9z"/>
<path d="M6556 3413 c-4 -5 -13 -8 -19 -8 -14 0 -16 -35 -4 -52 5 -7 13 -11
17 -8 4 3 8 -6 8 -20 0 -14 -4 -22 -9 -19 -5 3 -9 0 -9 -6 0 -7 6 -10 13 -8 7
3 12 23 12 51 1 25 -3 43 -7 41 -12 -8 -9 11 4 24 7 7 10 12 7 12 -3 0 -9 -3
-13 -7z m-1 -42 c3 -5 1 -12 -5 -16 -5 -3 -10 1 -10 9 0 18 6 21 15 7z"/>
<path d="M436 3355 c-3 -9 -2 -13 3 -10 5 3 12 1 16 -4 3 -5 -3 -14 -12 -20
-10 -6 -13 -11 -6 -11 6 0 15 5 18 10 4 6 12 7 18 3 7 -3 3 4 -8 18 -11 13
-20 25 -21 27 -1 2 -4 -4 -8 -13z"/>
<path d="M6586 3318 c3 -5 10 -6 15 -3 13 9 11 12 -6 12 -8 0 -12 -4 -9 -9z"/>
<path d="M6593 3245 c0 -8 4 -12 9 -9 5 3 6 10 3 15 -9 13 -12 11 -12 -6z"/>
<path d="M447 3239 c7 -7 15 -10 18 -7 3 3 -2 9 -12 12 -14 6 -15 5 -6 -5z"/>
<path d="M6576 3187 c3 -10 9 -15 12 -12 3 3 0 11 -7 18 -10 9 -11 8 -5 -6z"/>
<path d="M6570 3119 c0 -5 5 -7 10 -4 6 3 10 8 10 11 0 2 -4 4 -10 4 -5 0 -10
-5 -10 -11z"/>
<path d="M493 3065 c0 -8 4 -12 9 -9 5 3 6 10 3 15 -9 13 -12 11 -12 -6z"/>
<path d="M6485 2989 c-4 -6 -5 -12 -2 -15 2 -3 7 2 10 11 7 17 1 20 -8 4z"/>
<path d="M603 2958 c3 -9 -1 -22 -9 -29 -8 -6 -12 -14 -10 -16 2 -3 13 4 24
15 19 19 19 22 4 34 -13 11 -15 11 -9 -4z"/>
<path d="M617 2916 c-4 -11 -1 -13 11 -10 13 5 13 2 -3 -11 -14 -12 -15 -16
-5 -14 8 1 23 -1 33 -6 29 -12 29 0 -2 29 -23 22 -30 24 -34 12z"/>
<path d="M6470 2888 c13 -15 40 -19 40 -6 0 6 -6 8 -14 5 -7 -3 -19 -1 -25 4
-8 6 -8 5 -1 -3z"/>
<path d="M655 2800 c3 -5 8 -10 11 -10 2 0 4 5 4 10 0 6 -5 10 -11 10 -5 0 -7
-4 -4 -10z"/>
<path d="M670 2776 c0 -2 8 -10 18 -17 15 -13 16 -12 3 4 -13 16 -21 21 -21
13z"/>
<path d="M776 2725 c3 -7 -2 -15 -13 -18 -16 -4 -16 -5 -1 -6 12 -1 15 -6 11
-18 -5 -14 -3 -13 13 3 11 10 16 21 12 22 -5 2 -6 7 -3 12 3 4 -2 10 -10 13
-9 4 -12 1 -9 -8z"/>
<path d="M846 2630 c-19 -6 -19 -7 1 -12 25 -7 53 6 31 14 -7 3 -22 2 -32 -2z"/>
<path d="M6339 2608 c-6 -21 -5 -37 2 -32 5 3 7 9 4 14 -3 4 1 11 7 13 10 4
10 6 1 6 -7 1 -13 0 -14 -1z"/>
<path d="M956 2523 c-6 -14 -5 -15 5 -6 7 7 10 15 7 18 -3 3 -9 -2 -12 -12z"/>
<path d="M6240 2530 c-9 -6 -10 -10 -3 -10 6 0 15 5 18 10 8 12 4 12 -15 0z"/>
<path d="M6270 2520 c0 -5 5 -10 11 -10 5 0 7 5 4 10 -3 6 -8 10 -11 10 -2 0
-4 -4 -4 -10z"/>
<path d="M1115 2411 c-3 -5 -2 -12 3 -15 5 -3 9 1 9 9 0 17 -3 19 -12 6z"/>
<path d="M1136 2363 c-6 -14 -5 -15 5 -6 7 7 10 15 7 18 -3 3 -9 -2 -12 -12z"/>
<path d="M6062 2371 c-8 -4 -14 -12 -15 -17 -1 -5 -8 -8 -14 -8 -7 1 -10 -2
-8 -6 3 -5 14 -8 25 -7 10 1 16 5 14 9 -3 4 5 9 18 9 17 1 18 3 5 6 -9 2 -15
9 -12 14 7 11 4 11 -13 0z"/>
<path d="M5991 2337 c-9 -12 -9 -17 0 -23 8 -4 9 -3 5 4 -4 7 -2 12 3 12 6 0
11 -5 11 -12 0 -6 3 -9 6 -5 3 3 2 13 -3 22 -8 14 -11 14 -22 2z"/>
<path d="M5990 2296 c0 -2 8 -10 18 -17 15 -13 16 -12 3 4 -13 16 -21 21 -21
13z"/>
<path d="M5862 2281 c-11 -7 -10 -9 3 -15 17 -6 12 -26 -6 -26 -6 0 -7 5 -3
11 4 8 0 8 -15 0 -27 -15 -26 -17 2 -16 13 0 32 7 42 15 17 14 18 13 11 -5 -5
-15 -4 -17 4 -9 9 9 8 17 -2 33 -14 23 -17 24 -36 12z"/>
<path d="M5795 2240 c-3 -5 -1 -10 4 -10 6 0 11 5 11 10 0 6 -2 10 -4 10 -3 0
-8 -4 -11 -10z"/>
<path d="M1168 2188 c-16 -30 -19 -48 -7 -48 6 0 9 8 7 18 -2 11 3 17 15 16
13 -2 15 1 7 10 -5 7 -7 16 -3 19 3 4 3 7 0 7 -3 0 -12 -10 -19 -22z"/>
<path d="M5720 2160 c-9 -6 -10 -10 -3 -10 6 0 15 5 18 10 8 12 4 12 -15 0z"/>
<path d="M5653 2135 c-3 -9 -3 -18 -1 -21 3 -3 8 4 11 16 6 23 -1 27 -10 5z"/>
<path d="M1200 2105 c-7 -8 -15 -13 -19 -11 -4 3 -7 -4 -7 -14 0 -11 2 -17 4
-15 8 8 43 -16 37 -26 -4 -5 -1 -9 4 -9 11 0 10 26 0 45 -4 6 -5 18 -4 28 4
21 1 21 -15 2z m7 -12 c-4 -3 -2 -12 5 -20 8 -11 7 -12 -6 -7 -9 3 -16 9 -16
13 0 9 11 21 18 21 3 0 2 -3 -1 -7z"/>
<path d="M5615 2060 c-3 -6 1 -7 9 -4 18 7 21 14 7 14 -6 0 -13 -4 -16 -10z"/>
<path d="M1175 2040 c-3 -6 1 -7 9 -4 18 7 21 14 7 14 -6 0 -13 -4 -16 -10z"/>
<path d="M1193 2015 c0 -7 6 -11 14 -8 7 3 13 6 13 8 0 2 -6 5 -13 8 -8 3 -14
-1 -14 -8z"/>
<path d="M1233 1995 c2 -17 0 -39 -5 -50 -7 -14 -4 -13 11 5 15 19 17 28 8 39
-7 8 -10 16 -9 18 2 3 1 8 -3 11 -3 4 -4 -7 -2 -23z"/>
<path d="M5580 2011 c0 -6 4 -13 10 -16 6 -3 7 1 4 9 -7 18 -14 21 -14 7z"/>
<path d="M1196 1978 c3 -5 10 -6 15 -3 13 9 11 12 -6 12 -8 0 -12 -4 -9 -9z"/>
<path d="M1365 1769 c-18 -9 -18 -9 3 -5 12 2 22 0 22 -5 0 -5 -4 -9 -10 -9
-5 0 -10 -5 -10 -12 0 -6 7 -4 18 5 10 10 22 14 25 10 4 -3 7 -3 7 0 0 14 -36
24 -55 16z"/>
<path d="M5455 1720 c-3 -5 -3 -10 1 -10 4 0 0 -8 -9 -18 -10 -10 -15 -21 -12
-24 3 -3 -6 -17 -19 -31 -19 -20 -21 -27 -9 -31 8 -3 11 -11 7 -17 -4 -7 -3
-9 4 -5 6 3 9 15 7 26 -2 11 1 20 6 20 6 0 7 5 4 10 -11 17 7 11 22 -7 11 -14
11 -11 -1 13 -14 30 -13 44 5 44 5 0 6 -8 3 -17 -5 -14 -4 -15 4 -4 6 8 8 20
5 28 -4 9 0 11 13 7 20 -8 19 -6 -8 14 -11 9 -18 10 -23 2z"/>
<path d="M1433 1685 c0 -7 6 -11 14 -8 7 3 13 6 13 8 0 2 -6 5 -13 8 -8 3 -14
-1 -14 -8z"/>
<path d="M1549 1658 c8 -23 31 -37 31 -19 0 6 0 14 1 18 0 4 -9 10 -20 14 -17
7 -19 5 -12 -13z"/>
<path d="M1486 1642 c-2 -4 4 -8 14 -8 10 0 16 4 14 8 -3 4 -9 8 -14 8 -5 0
-11 -4 -14 -8z"/>
<path d="M1656 1613 c-7 -17 12 -36 26 -27 7 5 12 -10 9 -28 -3 -19 17 -6 23
15 7 21 7 21 16 2 12 -28 12 -37 -2 -29 -7 5 -8 3 -3 -6 6 -10 11 -9 21 5 12
16 11 21 -2 37 -9 9 -20 15 -25 13 -4 -3 -10 -1 -14 5 -3 5 -14 14 -25 20 -14
7 -20 6 -24 -7z m47 -23 c10 -12 9 -12 -4 -2 -9 6 -18 9 -21 6 -3 -3 -9 -1
-12 4 -9 15 22 8 37 -8z"/>
<path d="M1801 1553 c9 -14 17 -19 23 -13 6 6 15 5 25 -3 10 -7 8 -2 -3 11
-20 23 -32 30 -21 12 9 -14 -8 -12 -24 3 -11 10 -11 8 0 -10z"/>
<path d="M1770 1550 c0 -5 5 -10 11 -10 5 0 7 5 4 10 -3 6 -8 10 -11 10 -2 0
-4 -4 -4 -10z"/>
<path d="M2026 1537 c3 -10 9 -15 12 -12 3 3 0 11 -7 18 -10 9 -11 8 -5 -6z"/>
<path d="M2050 1538 c13 -14 49 -27 54 -20 3 5 0 9 -7 9 -7 0 -21 4 -32 8 -11
5 -18 6 -15 3z"/>
<path d="M2010 1521 c0 -6 4 -13 10 -16 6 -3 7 1 4 9 -7 18 -14 21 -14 7z"/>
<path d="M2170 1500 c0 -5 5 -10 11 -10 5 0 7 5 4 10 -3 6 -8 10 -11 10 -2 0
-4 -4 -4 -10z"/>
<path d="M5326 1483 c-6 -14 -5 -15 5 -6 7 7 10 15 7 18 -3 3 -9 -2 -12 -12z"/>
<path d="M996 1455 c-3 -9 -10 -13 -16 -10 -5 3 -10 1 -10 -4 0 -6 4 -11 9
-11 12 0 35 29 29 36 -3 3 -8 -2 -12 -11z"/>
<path d="M757 1446 c-4 -11 -13 -16 -23 -12 -8 3 -12 2 -9 -4 3 -5 1 -19 -6
-31 -9 -17 -8 -20 3 -17 7 3 13 11 13 19 0 8 10 13 25 13 14 0 29 6 33 13 4 7
13 13 19 13 6 0 4 -8 -5 -18 -10 -10 -14 -22 -10 -25 3 -4 1 -7 -4 -7 -6 0
-13 5 -15 11 -3 8 -10 5 -22 -6 -10 -10 -28 -20 -40 -21 -11 -1 -22 -3 -23 -4
-2 -2 -8 -3 -13 -4 -6 0 -15 -8 -20 -16 -7 -11 -10 -11 -10 -2 0 7 -4 10 -10
7 -5 -3 -10 -1 -10 4 0 10 14 15 33 12 4 0 7 5 7 12 0 8 4 7 11 -3 9 -13 10
-12 5 3 -4 12 -2 16 5 11 13 -7 30 15 22 29 -3 5 -16 -2 -30 -14 -20 -20 -26
-21 -34 -9 -9 12 -10 12 -5 -2 3 -10 1 -18 -4 -18 -5 0 -11 8 -13 18 -4 16 -5
16 -6 -1 -1 -11 -6 -15 -13 -11 -6 4 -8 3 -4 -4 3 -5 3 -12 -1 -15 -5 -2 -2
-2 5 -1 6 2 12 -1 12 -7 0 -11 -49 -9 -66 3 -9 7 -12 -22 -4 -42 1 -3 2 -9 1
-14 -1 -5 4 -13 11 -19 10 -6 9 -7 -4 -3 -9 2 -19 0 -21 -7 -2 -7 -3 -3 -1 8
4 24 -5 39 -26 43 -10 1 -9 -2 4 -13 11 -8 14 -15 7 -15 -7 0 -9 -5 -5 -12 4
-7 3 -8 -5 -4 -6 4 -25 -2 -41 -14 -29 -21 -30 -22 -15 -57 9 -20 13 -38 11
-40 -2 -3 -7 5 -11 16 -3 12 -11 21 -16 21 -6 0 -8 4 -5 9 3 4 -1 17 -10 27
-14 18 -15 18 -4 -4 9 -19 8 -24 -12 -32 -14 -5 -17 -9 -8 -10 10 -1 9 -4 -4
-9 -19 -7 -19 -8 2 -13 12 -4 20 -3 18 1 -3 4 -1 12 3 19 4 8 11 5 20 -9 7
-12 8 -18 2 -15 -18 12 -24 -17 -6 -31 11 -7 14 -13 7 -13 -6 0 -17 8 -24 18
-7 9 -22 18 -33 19 -11 1 -14 0 -7 -3 6 -3 12 -12 12 -20 0 -9 4 -13 9 -10 5
3 11 -1 15 -9 3 -8 0 -14 -7 -12 -7 1 -12 -5 -13 -13 -2 -27 -16 -50 -30 -50
-8 0 -14 5 -14 11 0 5 4 8 9 5 5 -3 14 1 21 9 7 8 8 15 3 15 -5 0 -10 10 -10
22 -2 18 0 20 7 8 5 -8 10 -10 10 -5 0 6 -4 16 -9 23 -7 11 -9 10 -15 -3 -3
-9 -10 -14 -15 -11 -5 3 -11 0 -14 -8 -4 -10 1 -12 16 -9 18 4 19 3 7 -6 -10
-7 -11 -11 -2 -11 6 0 12 -5 12 -11 0 -5 -4 -8 -9 -4 -5 3 -19 -9 -31 -26 -17
-22 -20 -33 -11 -42 6 -6 11 -20 11 -30 0 -11 8 -26 18 -33 16 -13 16 -14 -1
-8 -13 5 -16 2 -11 -10 3 -9 2 -16 -4 -16 -6 0 -9 8 -7 18 1 9 -2 22 -7 29 -5
7 -6 18 -2 24 5 8 3 9 -5 5 -7 -5 -10 -14 -7 -22 3 -8 0 -14 -7 -14 -7 0 -4
-5 6 -11 9 -6 15 -15 11 -21 -4 -6 -9 -5 -15 3 -5 9 -7 0 -6 -24 3 -31 0 -37
-12 -32 -9 3 -6 -3 7 -13 18 -14 20 -20 10 -31 -9 -10 -9 -12 -1 -7 8 5 11 -2
10 -20 -1 -17 4 -29 13 -31 9 -3 11 -1 5 4 -5 4 -10 24 -10 44 -1 28 3 35 20
36 18 2 18 1 2 -8 -12 -7 -15 -15 -9 -27 4 -9 7 -26 7 -37 -1 -11 11 -32 26
-47 15 -14 24 -29 21 -33 -7 -7 -9 -13 -11 -46 0 -11 -5 -17 -11 -14 -5 3 -10
1 -10 -4 0 -6 4 -11 10 -11 5 0 8 -6 6 -12 -1 -7 -1 -10 1 -5 3 4 9 5 14 1 5
-3 6 -11 2 -17 -12 -19 -10 -45 2 -41 7 3 18 -2 25 -10 10 -13 9 -17 -4 -22
-9 -3 -13 -10 -10 -16 3 -5 12 -1 19 9 7 10 11 21 9 25 -3 4 2 5 11 2 14 -6
14 -8 -1 -25 -9 -11 -14 -19 -9 -19 4 0 1 -8 -6 -17 -13 -16 -12 -17 3 -4 10
7 16 17 13 21 -3 4 2 11 11 14 12 4 14 1 9 -14 -4 -12 -2 -20 5 -20 6 0 8 -5
5 -10 -4 -6 -1 -9 6 -8 7 2 15 -5 17 -16 3 -13 0 -16 -9 -11 -8 6 -10 4 -5 -4
5 -7 11 -10 14 -7 3 3 10 2 17 -4 7 -6 21 -4 38 5 15 8 25 10 22 5 -4 -6 -1
-10 4 -10 6 0 11 -4 11 -8 0 -5 -7 -9 -15 -9 -8 0 -12 4 -9 9 3 4 -2 5 -11 1
-13 -5 -14 -7 -3 -14 11 -7 10 -9 -1 -9 -8 0 -11 -3 -8 -6 4 -4 13 -1 21 5 11
10 17 7 30 -11 9 -13 20 -22 24 -21 4 0 6 -3 5 -8 -5 -16 15 -10 21 7 3 9 11
12 18 8 10 -5 10 -4 0 7 -9 10 -15 11 -20 2 -5 -8 -12 -8 -26 3 -12 8 -15 14
-7 14 11 0 11 3 0 17 -13 17 -13 17 5 3 18 -14 19 -13 12 5 -6 16 -5 17 5 8
10 -10 9 -16 -2 -29 -12 -15 -12 -16 6 -11 11 4 26 3 33 -2 16 -9 4 -44 -12
-34 -7 4 -7 1 1 -9 7 -8 10 -18 6 -21 -3 -4 -1 -7 5 -7 7 0 12 5 12 12 0 9 3
9 11 1 13 -13 39 -6 39 9 0 7 -5 6 -14 -1 -10 -8 -16 -8 -25 3 -8 10 -9 16 -1
21 6 3 8 10 6 14 -3 4 1 8 9 8 20 0 19 -7 -2 -24 -17 -12 -16 -13 7 -11 14 2
29 8 33 13 5 6 5 -1 2 -15 -6 -20 -5 -23 6 -13 9 10 16 10 27 1 10 -9 16 -8
22 2 5 8 13 11 17 6 4 -5 2 -11 -5 -13 -6 -3 -10 -8 -7 -13 3 -4 -3 -7 -12 -6
-9 0 -17 -5 -19 -12 -1 -7 0 -8 3 -2 2 5 9 10 14 10 6 0 7 -6 3 -12 -6 -10 -4
-10 8 0 14 11 18 10 27 -5 6 -10 11 -13 11 -6 0 7 10 10 25 7 14 -2 25 0 25 5
0 6 -9 8 -20 6 -11 -2 -18 0 -15 5 3 5 -4 7 -15 5 -11 -2 -18 0 -15 6 4 5 10
7 14 4 5 -2 17 2 27 10 10 8 24 14 29 14 6 0 2 -4 -7 -10 -10 -5 -18 -15 -18
-20 0 -6 4 -8 9 -4 5 3 12 1 16 -5 4 -6 11 -8 16 -5 5 4 9 -2 10 -12 0 -11 3
-13 6 -5 2 6 10 9 15 6 7 -5 8 -2 3 6 -5 8 -3 11 6 8 8 -3 14 -10 14 -16 0 -5
3 -13 7 -17 3 -4 5 1 4 12 -5 28 5 36 20 16 13 -17 14 -17 7 1 -4 13 -3 17 5
12 7 -4 12 -2 12 6 0 9 3 9 10 -2 5 -8 10 -10 10 -4 0 19 -12 24 -33 12 -17
-9 -19 -8 -14 6 4 9 1 16 -5 16 -6 0 -8 3 -5 6 4 4 12 2 19 -4 14 -12 57 5 57
23 0 5 5 11 11 13 8 3 10 -3 5 -17 -4 -12 -2 -21 4 -21 6 0 10 3 10 8 -3 19 2
29 16 29 8 0 15 -5 15 -11 0 -6 7 -1 15 11 8 12 13 27 12 35 -2 7 -2 10 0 6 3
-5 9 -8 15 -8 6 0 3 11 -6 25 -9 14 -12 25 -6 25 5 0 10 -5 10 -11 0 -6 10 -8
23 -5 12 3 16 3 9 0 -6 -3 -9 -11 -6 -16 4 -7 2 -8 -4 -4 -8 5 -10 2 -6 -8 3
-9 10 -16 16 -16 5 0 6 5 3 10 -3 5 -1 10 6 10 7 0 9 3 6 7 -4 3 -2 12 4 20 9
9 15 10 25 3 10 -9 12 -5 9 16 -2 26 -2 27 11 10 7 -11 11 -23 7 -29 -3 -6 -1
-7 5 -3 9 5 9 13 1 28 -9 16 -7 24 6 37 16 15 17 14 11 -9 -6 -21 -5 -22 4 -7
17 26 2 42 -20 22 -11 -10 -24 -14 -31 -9 -9 5 -10 0 -5 -19 5 -22 3 -25 -14
-22 -11 2 -18 0 -15 -5 3 -6 -1 -7 -10 -3 -13 4 -14 8 -4 14 7 4 17 5 21 3 4
-3 8 4 8 14 0 11 8 26 17 33 11 10 14 10 9 2 -13 -22 8 -14 33 12 12 14 27 23
31 20 5 -3 12 0 16 6 4 8 3 9 -4 5 -7 -4 -12 -2 -12 3 0 6 7 11 16 11 10 0 14
6 11 15 -4 8 -2 17 3 20 5 3 10 -3 12 -12 3 -13 6 -10 9 9 4 18 2 25 -7 21 -6
-2 -15 1 -19 7 -3 6 -1 9 6 8 6 -2 14 3 17 11 3 9 0 11 -8 6 -9 -6 -11 -4 -5
5 6 10 3 12 -11 7 -18 -7 -18 -6 1 8 11 9 20 20 20 26 0 21 29 28 50 11 20
-17 20 -17 2 4 -15 18 -15 23 -4 32 8 7 18 9 23 5 5 -4 3 -1 -4 7 -11 12 -14
13 -21 1 -6 -8 -11 -9 -15 -3 -3 6 -2 13 4 17 15 9 -8 47 -23 39 -7 -4 -9 -4
-5 1 4 4 0 14 -10 22 -15 13 -15 13 4 4 12 -6 25 -7 29 -3 5 4 6 3 3 -3 -3 -5
3 -18 13 -27 17 -16 18 -16 16 2 -1 10 -4 17 -8 14 -4 -2 -10 3 -13 11 -7 18
17 30 36 19 10 -5 10 -4 1 6 -10 11 -18 11 -38 2 -31 -14 -46 -15 -25 -2 9 6
10 10 3 10 -7 0 -17 10 -23 23 -11 21 -10 21 4 3 9 -11 19 -16 23 -13 3 4 3 7
-1 7 -4 0 -2 9 4 21 9 15 15 18 25 9 10 -8 15 -8 21 1 4 7 3 9 -3 6 -6 -4 -16
0 -23 8 -12 14 -7 19 13 16 5 -1 6 3 2 9 -5 8 -11 8 -21 -1 -7 -6 -11 -16 -7
-23 4 -6 -1 -5 -10 2 -9 8 -22 10 -28 6 -8 -5 -9 -3 -5 5 5 7 14 10 20 8 15
-6 40 30 26 38 -5 3 -9 13 -9 23 -1 9 -1 24 -2 32 -1 8 2 24 5 35 6 16 4 15
-6 -3 -16 -26 -32 -18 -17 9 7 15 6 17 -5 13 -15 -6 -17 11 -3 32 4 7 0 17 -8
24 -10 9 -15 9 -15 1 0 -6 5 -11 11 -11 5 0 7 -5 4 -10 -4 -6 -12 -7 -18 -3
-9 5 -9 3 0 -8 9 -11 7 -19 -8 -38 -10 -13 -19 -19 -19 -13 0 6 7 17 15 25 12
13 12 17 -4 31 -13 12 -21 14 -26 7 -3 -6 -12 -11 -18 -11 -7 0 -4 5 5 11 9 5
15 16 12 24 -4 8 -11 12 -18 8 -6 -4 -6 0 2 9 9 11 10 18 2 23 -5 3 -10 2 -10
-4 0 -5 -9 -9 -19 -8 -11 0 -17 5 -15 9 3 5 10 6 15 3 13 -9 23 22 13 43 -4 9
-7 24 -6 32 1 10 0 11 -4 3 -3 -7 -10 -13 -15 -13 -5 0 -8 6 -7 13 2 6 -5 11
-15 11 -13 -2 -16 3 -11 19 5 17 4 18 -9 6 -9 -9 -12 -18 -6 -25 6 -7 3 -16
-8 -25 -16 -13 -17 -12 -4 4 8 10 9 17 3 17 -6 0 -10 9 -9 19 0 11 5 17 9 15
4 -3 8 -1 8 3 0 10 -42 38 -52 35 -5 -1 -8 3 -8 9 0 6 -7 3 -16 -6 -11 -11
-20 -13 -28 -6 -9 7 -19 6 -34 -5 -20 -13 -21 -13 -16 1 5 13 24 20 47 16 12
-2 8 9 -9 26 -8 9 -12 23 -9 32 5 12 3 13 -5 5 -9 -9 -9 -17 -1 -33 14 -26 1
-28 -20 -3 -13 15 -26 18 -65 15 -59 -6 -65 -10 -33 -22 16 -7 19 -10 7 -10
-9 -1 -20 4 -23 9 -5 8 -11 8 -19 1 -9 -8 -13 -7 -13 4 0 8 3 13 5 10 3 -3 12
1 20 8 8 6 23 12 34 12 22 0 29 17 8 21 -8 1 -24 5 -35 9 -16 5 -17 5 -5 -4
18 -12 7 -26 -12 -15 -18 12 -87 14 -94 3 -9 -15 -22 -10 -26 9 -3 16 -4 16
-11 -2z m130 -19 c4 -6 0 -8 -10 -4 -9 3 -18 0 -21 -8 -3 -9 -12 -12 -22 -8
-12 4 -15 3 -10 -5 4 -7 2 -12 -3 -12 -14 0 -14 6 -1 29 10 20 56 25 67 8z
m122 -51 c-8 -8 -13 -7 -16 3 -3 8 -8 9 -12 3 -4 -6 -12 -4 -21 6 -13 14 -12
15 3 9 9 -3 19 -2 23 4 4 6 11 6 20 -2 11 -9 12 -15 3 -23z m-159 4 c-14 -9
-7 -14 13 -11 5 1 6 -3 2 -9 -5 -8 -11 -8 -21 1 -15 12 -10 29 9 29 7 0 6 -4
-3 -10z m289 -36 c5 -5 5 -18 1 -29 -7 -17 -9 -16 -10 10 -1 28 -1 29 -15 11
-8 -10 -12 -22 -10 -27 3 -4 1 -10 -4 -14 -6 -3 -8 5 -5 20 3 20 1 23 -13 18
-15 -5 -15 -3 1 9 21 17 41 17 55 2z m-548 -27 c-6 -6 -15 -4 -25 6 -12 11
-13 17 -3 20 18 6 40 -14 28 -26z m109 27 c0 -8 -19 -13 -24 -6 -3 5 1 9 9 9
8 0 15 -2 15 -3z m434 -62 c3 -5 -1 -9 -9 -9 -8 0 -12 4 -9 9 3 4 7 8 9 8 2 0
6 -4 9 -8z m71 -1 c-3 -6 4 -15 15 -21 24 -13 26 -26 4 -34 -15 -6 -15 -4 -3
11 12 15 12 16 -2 11 -9 -4 -21 -2 -27 4 -12 12 -5 38 10 38 5 0 7 -4 3 -9z
m-710 -18 c-2 -10 -4 -19 -5 -20 -2 -2 -3 -7 -4 -13 0 -5 -5 -10 -11 -9 -5 1
-9 5 -7 10 1 5 -3 9 -9 9 -6 0 -1 9 12 20 29 24 28 24 24 3z m845 -177 c0 -2
-7 -9 -15 -16 -13 -11 -14 -10 -9 4 5 14 24 23 24 12z m8 -41 c-2 -6 -6 -9
-10 -7 -10 3 -10 -12 -1 -21 3 -4 13 -1 22 6 14 11 14 10 2 -5 -15 -20 -26
-16 -42 14 -8 15 -8 19 0 14 6 -4 11 -2 11 4 0 7 5 10 11 8 6 -2 9 -8 7 -13z
m-968 -28 c0 -8 -4 -7 -10 3 -14 22 -23 5 -10 -20 10 -18 9 -21 -1 -15 -9 6
-11 3 -6 -9 4 -10 3 -15 -4 -11 -5 4 -7 16 -3 27 4 13 2 18 -4 14 -16 -10 -25
13 -12 29 14 17 50 3 50 -18z m988 -33 c-4 -11 -28 -14 -28 -4 0 8 22 20 28
14 2 -1 2 -6 0 -10z m-8 -64 c0 -5 -2 -10 -4 -10 -3 0 -8 5 -11 10 -3 6 -1 10
4 10 6 0 11 -4 11 -10z m-993 -15 c0 -8 -4 -15 -9 -15 -10 0 -11 14 -1 23 9
10 10 9 10 -8z m-26 -28 c7 -12 8 -19 4 -15 -4 4 -15 3 -25 -2 -12 -7 -17 -5
-17 8 -3 46 17 51 38 9z m44 -60 c3 -4 2 -5 -2 -2 -3 3 -13 -1 -21 -8 -11 -8
-14 -8 -9 0 4 6 1 14 -5 17 -7 2 -3 4 9 2 12 -1 25 -5 28 -9z m986 -30 c-1
-12 -15 -9 -19 4 -3 6 1 10 8 8 6 -3 11 -8 11 -12z m-987 -25 c3 -5 -1 -9 -9
-9 -8 0 -12 4 -9 9 3 4 7 8 9 8 2 0 6 -4 9 -8z m991 -20 c-3 -3 -16 -7 -28 -9
-21 -3 -21 -2 -3 12 17 13 45 11 31 -3z m-972 -57 c-3 -9 -8 -14 -10 -11 -3 3
-2 9 2 15 9 16 15 13 8 -4z m907 -45 c0 -5 -5 -10 -11 -10 -5 0 -7 5 -4 10 3
6 8 10 11 10 2 0 4 -4 4 -10z m-904 -12 c4 -7 3 -8 -4 -4 -7 4 -12 2 -12 -3 0
-6 5 -11 11 -11 6 0 9 -6 6 -12 -2 -7 0 -24 5 -38 9 -24 9 -24 -11 -6 -15 14
-18 23 -11 31 7 9 6 16 -5 25 -13 11 -13 15 -3 21 17 11 16 11 24 -3z m915
-21 c-6 -8 -7 -18 -3 -22 4 -5 2 -5 -5 -1 -7 3 -14 -2 -18 -14 -7 -21 -30 -27
-40 -11 -3 5 0 13 6 17 8 4 9 3 5 -4 -4 -7 -3 -12 3 -12 5 0 13 5 17 11 8 13
-16 30 -30 22 -5 -3 -6 -1 -2 5 5 9 13 9 27 2 15 -9 21 -7 25 5 3 8 11 15 16
15 7 0 6 -5 -1 -13z m-874 -52 c0 -8 -4 -12 -9 -9 -5 3 -6 10 -3 15 9 13 12
11 12 -6z m803 -15 c0 -5 -2 -10 -4 -10 -3 0 -8 5 -11 10 -3 6 -1 10 4 10 6 0
11 -4 11 -10z m-772 -35 c-3 -3 -9 2 -12 12 -6 14 -5 15 5 6 7 -7 10 -15 7
-18z m32 -5 c0 -5 -2 -10 -4 -10 -3 0 -8 5 -11 10 -3 6 -1 10 4 10 6 0 11 -4
11 -10z m-10 -20 c11 -7 11 -10 2 -10 -7 0 -10 -5 -7 -10 4 -7 13 -6 26 1 12
6 23 8 26 6 2 -3 -5 -8 -16 -12 -12 -3 -21 -11 -21 -16 0 -6 5 -7 10 -4 11 7
14 -8 4 -18 -6 -5 -54 56 -54 68 0 8 14 5 30 -5z m594 -82 c-4 -5 0 -8 8 -6 7
2 13 -1 13 -7 0 -12 -25 -17 -25 -4 0 4 -6 7 -12 5 -7 -1 -10 -1 -5 1 4 3 5 8
3 12 -3 4 1 8 9 8 8 0 12 -4 9 -9z m-66 -40 c-2 -6 -10 -13 -16 -14 -7 -1 -8
0 -2 3 5 2 8 9 4 14 -3 5 0 9 6 9 7 0 10 -5 8 -12z m-72 -45 c-4 11 -2 16 5
12 20 -13 2 -29 -34 -30 -38 -2 -49 8 -21 19 8 3 12 2 9 -4 -3 -6 -1 -10 4
-10 6 0 11 8 11 17 0 15 2 14 16 -3 14 -17 15 -17 10 -1z"/>
<path d="M835 1420 c3 -5 8 -10 11 -10 2 0 4 5 4 10 0 6 -5 10 -11 10 -5 0 -7
-4 -4 -10z"/>
<path d="M313 885 c0 -8 4 -15 9 -15 4 0 8 4 8 9 0 6 -4 12 -8 15 -5 3 -9 -1
-9 -9z"/>
<path d="M4000 1451 c-8 -6 -18 -7 -22 -5 -4 3 -8 1 -8 -3 0 -5 10 -14 23 -22
20 -13 21 -13 8 2 -16 20 -8 22 20 6 19 -10 19 -9 9 10 -12 24 -11 23 -30 12z"/>
<path d="M2226 1441 c-4 -5 3 -7 14 -4 23 6 26 13 6 13 -8 0 -17 -4 -20 -9z"/>
<path d="M3896 1442 c-3 -4 4 -9 15 -9 23 -2 25 3 4 10 -8 4 -16 3 -19 -1z"/>
<path d="M669 1423 c-13 -16 -12 -17 4 -4 16 13 21 21 13 21 -2 0 -10 -8 -17
-17z"/>
<path d="M4055 1430 c-4 -7 -3 -15 2 -19 6 -3 13 -13 16 -21 4 -12 6 -11 6 3
1 10 6 15 11 12 6 -4 7 -11 4 -17 -4 -7 -2 -8 4 -4 7 4 12 3 12 -2 0 -6 6 -12
14 -15 8 -3 13 0 12 9 -2 16 -26 43 -26 29 0 -5 -11 2 -24 14 -17 16 -26 19
-31 11z"/>
<path d="M2337 1414 c-13 -13 -8 -26 8 -20 15 5 39 -25 30 -38 -3 -3 1 -2 7 4
19 16 32 12 18 -5 -7 -9 -11 -18 -8 -21 3 -2 13 7 22 20 17 26 4 48 -16 28 -7
-7 -17 -3 -32 15 -12 13 -25 21 -29 17z"/>
<path d="M3850 1411 c0 -5 5 -13 10 -16 6 -3 10 -2 10 4 0 5 -4 13 -10 16 -5
3 -10 2 -10 -4z"/>
<path d="M3970 1416 c0 -2 8 -10 18 -17 15 -13 16 -12 3 4 -13 16 -21 21 -21
13z"/>
<path d="M1100 1406 c0 -2 8 -10 18 -17 15 -13 16 -12 3 4 -13 16 -21 21 -21
13z"/>
<path d="M4014 1398 c-4 -7 -4 -10 1 -6 4 4 15 2 24 -5 14 -11 14 -10 2 6 -16
20 -18 21 -27 5z"/>
<path d="M5236 1393 c-6 -14 -5 -15 5 -6 7 7 10 15 7 18 -3 3 -9 -2 -12 -12z"/>
<path d="M570 1380 c-9 -6 -10 -10 -3 -10 6 0 15 5 18 10 8 12 4 12 -15 0z"/>
<path d="M1076 1373 c-6 -14 -5 -15 5 -6 7 7 10 15 7 18 -3 3 -9 -2 -12 -12z"/>
<path d="M5126 1366 c7 -19 20 -21 30 -3 4 6 4 9 -1 5 -4 -4 -14 -3 -22 4 -11
8 -12 7 -7 -6z"/>
<path d="M513 1355 c0 -8 4 -15 9 -15 4 0 8 4 8 9 0 6 -4 12 -8 15 -5 3 -9 -1
-9 -9z"/>
<path d="M4086 1362 c-3 -5 1 -9 9 -9 8 0 12 4 9 9 -3 4 -7 8 -9 8 -2 0 -6 -4
-9 -8z"/>
<path d="M4168 1363 c-10 -3 -18 -9 -18 -14 0 -6 -5 -7 -12 -3 -7 4 -8 3 -4
-5 6 -9 11 -9 21 -1 8 7 19 9 24 6 5 -4 12 -2 15 3 8 12 -4 19 -26 14z"/>
<path d="M5199 1353 c-13 -16 -12 -17 4 -4 9 7 17 15 17 17 0 8 -8 3 -21 -13z"/>
<path d="M5021 1343 c-5 -10 -12 -17 -15 -15 -3 1 -6 0 -6 -3 0 -25 2 -28 11
-12 6 9 15 14 21 11 6 -4 8 -3 4 4 -3 5 -1 12 6 14 9 3 9 6 1 11 -7 4 -16 -1
-22 -10z"/>
<path d="M5055 1332 c-3 -8 -3 -17 0 -20 3 -3 5 0 5 6 0 6 10 12 23 14 l22 3
-22 7 c-15 4 -24 1 -28 -10z"/>
<path d="M3813 1320 c-1 -11 2 -22 6 -24 4 -3 7 4 6 14 -2 27 -10 33 -12 10z"/>
<path d="M445 1280 c-3 -6 1 -7 9 -4 18 7 21 14 7 14 -6 0 -13 -4 -16 -10z"/>
<path d="M5016 1278 c3 -5 10 -6 15 -3 13 9 11 12 -6 12 -8 0 -12 -4 -9 -9z"/>
<path d="M4500 1275 c0 -1 10 -13 22 -26 14 -16 19 -18 15 -7 -3 10 -2 20 3
23 6 4 10 -2 10 -12 0 -14 2 -15 9 -4 6 9 11 10 15 2 4 -6 4 -16 0 -23 -4 -7
-3 -8 4 -4 7 4 12 14 12 22 0 8 5 14 11 14 6 0 8 -7 5 -16 -5 -14 -4 -15 8 -5
12 10 13 16 3 26 -8 9 -16 10 -24 3 -7 -5 -17 -6 -24 -3 -10 7 -69 15 -69 10z"/>
<path d="M4650 1255 c-13 -14 -20 -28 -17 -32 4 -3 7 -1 7 7 0 10 3 10 18 -1
14 -11 15 -11 5 0 -9 11 -7 18 10 32 12 10 17 18 11 19 -6 0 -21 -11 -34 -25z"/>
<path d="M4719 1253 c-10 -11 -10 -14 -1 -9 6 4 12 2 12 -3 0 -6 5 -11 11 -11
8 0 9 4 0 13 -6 8 -8 17 -4 20 3 4 4 7 1 7 -3 0 -12 -8 -19 -17z"/>
<path d="M3594 1249 c-5 -8 -18 -15 -29 -15 -14 0 -19 -5 -17 -19 2 -11 4 -26
4 -32 1 -7 5 -13 10 -13 11 0 10 7 -2 30 -8 16 -7 19 10 17 11 -1 19 -6 16
-12 -2 -7 1 -12 8 -12 7 0 13 6 13 14 0 7 -4 13 -8 13 -5 0 -6 7 -3 15 6 14 8
13 19 -2 11 -15 13 -15 24 8 10 21 10 22 -1 7 -13 -15 -15 -15 -24 0 -9 14
-12 14 -20 1z"/>
<path d="M1264 1228 c1 -22 26 -39 26 -18 0 6 -5 8 -12 4 -8 -5 -9 -2 -5 9 3
9 2 19 -2 21 -5 3 -8 -4 -7 -16z"/>
<path d="M4448 1243 c6 -2 9 -10 6 -15 -4 -7 -2 -8 5 -4 13 9 5 26 -12 25 -9
0 -8 -2 1 -6z"/>
<path d="M4770 1239 c0 -5 5 -7 10 -4 6 3 10 8 10 11 0 2 -4 4 -10 4 -5 0 -10
-5 -10 -11z"/>
<path d="M2825 1230 c3 -5 8 -10 11 -10 2 0 4 5 4 10 0 6 -5 10 -11 10 -5 0
-7 -4 -4 -10z"/>
<path d="M2695 1220 c-3 -5 -1 -10 4 -10 6 0 11 5 11 10 0 6 -2 10 -4 10 -3 0
-8 -4 -11 -10z"/>
<path d="M2743 1213 c-22 -8 -14 -19 15 -20 15 0 19 1 9 4 -9 2 -15 9 -12 14
7 10 6 10 -12 2z"/>
<path d="M3496 1211 c-4 -5 1 -8 9 -7 21 3 31 16 12 16 -9 0 -18 -4 -21 -9z"/>
<path d="M2935 1192 c4 -8 -1 -22 -12 -35 -18 -20 -17 -20 11 1 28 21 30 22
55 5 24 -15 25 -15 12 0 -7 9 -10 17 -5 17 4 0 3 5 -4 12 -8 8 -15 8 -25 0
-10 -9 -17 -8 -27 1 -10 9 -11 9 -5 -1z"/>
<path d="M1278 1183 c6 -2 10 -8 7 -13 -3 -4 1 -13 8 -19 11 -8 14 -7 14 7 0
18 -15 32 -32 31 -5 0 -4 -3 3 -6z"/>
<path d="M3150 1160 c0 -5 5 -10 10 -10 6 0 10 5 10 10 0 6 -4 10 -10 10 -5 0
-10 -4 -10 -10z"/>
<path d="M3245 1160 c-3 -5 -1 -10 4 -10 6 0 11 5 11 10 0 6 -2 10 -4 10 -3 0
-8 -4 -11 -10z"/>
<path d="M3270 1161 c0 -9 30 -24 36 -18 2 1 -6 8 -16 15 -11 7 -20 8 -20 3z"/>
<path d="M2976 1147 c3 -10 9 -15 12 -12 3 3 0 11 -7 18 -10 9 -11 8 -5 -6z"/>
<path d="M287 1099 c7 -7 15 -10 18 -7 3 3 -2 9 -12 12 -14 6 -15 5 -6 -5z"/>
<path d="M320 1080 c-9 -6 -10 -10 -3 -10 6 0 15 5 18 10 8 12 4 12 -15 0z"/>
<path d="M1379 907 c0 -1 -2 -10 -4 -20 -3 -15 -1 -16 13 -5 9 7 18 13 20 14
2 1 -4 4 -13 7 -8 4 -15 5 -16 4z"/>
<path d="M275 780 c3 -5 8 -10 11 -10 2 0 4 5 4 10 0 6 -5 10 -11 10 -5 0 -7
-4 -4 -10z"/>
<path d="M296 746 c3 -9 10 -16 16 -16 5 0 6 -4 3 -10 -3 -5 -1 -10 4 -10 6 0
11 5 11 11 0 5 4 8 8 5 11 -6 9 -36 -3 -55 -5 -10 -4 -12 3 -7 7 4 12 2 12 -5
0 -20 10 -4 15 23 3 17 -3 32 -20 48 -14 13 -25 20 -25 16 0 -5 -7 -3 -15 4
-13 11 -14 10 -9 -4z"/>
<path d="M290 700 c0 -5 5 -10 11 -10 5 0 7 5 4 10 -3 6 -8 10 -11 10 -2 0 -4
-4 -4 -10z"/>
<path d="M1354 703 c3 -4 1 -12 -5 -20 -6 -7 -9 -14 -5 -14 3 -1 9 -2 14 -3 4
-1 14 -5 22 -11 12 -7 13 -6 3 6 -10 12 -10 18 -1 27 7 7 10 12 8 13 -3 0 -13
2 -23 4 -11 2 -16 1 -13 -2z m26 -7 c0 -2 -8 -10 -17 -17 -16 -13 -17 -12 -4
4 13 16 21 21 21 13z"/>
<path d="M310 636 c7 -7 13 -7 20 0 6 6 3 10 -10 10 -13 0 -16 -4 -10 -10z"/>
<path d="M1366 637 c3 -10 9 -15 12 -12 3 3 0 11 -7 18 -10 9 -11 8 -5 -6z"/>
<path d="M1330 539 c0 -5 5 -7 10 -4 6 3 10 8 10 11 0 2 -4 4 -10 4 -5 0 -10
-5 -10 -11z"/>
<path d="M1295 520 c3 -5 8 -10 11 -10 2 0 4 5 4 10 0 6 -5 10 -11 10 -5 0 -7
-4 -4 -10z"/>
<path d="M1155 383 c3 -3 -2 -11 -11 -17 -13 -10 -13 -12 4 -12 19 0 24 19 9
31 -4 3 -5 2 -2 -2z"/>
<path d="M1035 320 c3 -5 8 -10 11 -10 2 0 4 5 4 10 0 6 -5 10 -11 10 -5 0 -7
-4 -4 -10z"/>
<path d="M744 306 c-3 -8 -13 -12 -22 -10 -14 5 -14 4 1 -6 9 -6 14 -16 11
-22 -4 -7 -2 -8 5 -4 6 4 9 11 6 16 -3 5 2 13 11 18 11 6 13 11 5 16 -6 4 -14
1 -17 -8z"/>
<path d="M1060 306 c0 -2 7 -6 15 -10 8 -3 15 -1 15 4 0 6 -7 10 -15 10 -8 0
-15 -2 -15 -4z"/>
</g>
</svg>
